<?xml version="1.0" encoding="UTF-8" standalone="no"?>
<!DOCTYPE svg PUBLIC "-//W3C//DTD SVG 1.1//EN"
 "http://www.w3.org/Graphics/SVG/1.1/DTD/svg11.dtd">
<!-- Generated by graphviz version 2.42.3 (20191010.1750)
 -->
<!-- Title: snakemake_dag Pages: 1 -->
<svg width="502pt" height="1052pt"
 viewBox="0.00 0.00 502.00 1052.00" xmlns="http://www.w3.org/2000/svg" xmlns:xlink="http://www.w3.org/1999/xlink">
<g id="graph0" class="graph" transform="scale(1 1) rotate(0) translate(4 1048)">
<title>snakemake_dag</title>
<polygon fill="white" stroke="transparent" points="-4,4 -4,-1048 498,-1048 498,4 -4,4"/>
<!-- 0 -->
<g id="node1" class="node">
<title>0</title>
<path fill="none" stroke="#d88556" stroke-width="2" d="M281.5,-36C281.5,-36 251.5,-36 251.5,-36 245.5,-36 239.5,-30 239.5,-24 239.5,-24 239.5,-12 239.5,-12 239.5,-6 245.5,0 251.5,0 251.5,0 281.5,0 281.5,0 287.5,0 293.5,-6 293.5,-12 293.5,-12 293.5,-24 293.5,-24 293.5,-30 287.5,-36 281.5,-36"/>
<text text-anchor="middle" x="266.5" y="-15.5" font-family="sans" font-size="10.00">all</text>
</g>
<!-- 1 -->
<g id="node2" class="node">
<title>1</title>
<path fill="none" stroke="#a7d856" stroke-width="2" d="M281.5,-108C281.5,-108 251.5,-108 251.5,-108 245.5,-108 239.5,-102 239.5,-96 239.5,-96 239.5,-84 239.5,-84 239.5,-78 245.5,-72 251.5,-72 251.5,-72 281.5,-72 281.5,-72 287.5,-72 293.5,-78 293.5,-84 293.5,-84 293.5,-96 293.5,-96 293.5,-102 287.5,-108 281.5,-108"/>
<text text-anchor="middle" x="266.5" y="-87.5" font-family="sans" font-size="10.00">CCT</text>
</g>
<!-- 1&#45;&gt;0 -->
<g id="edge1" class="edge">
<title>1&#45;&gt;0</title>
<path fill="none" stroke="grey" stroke-width="2" d="M266.5,-71.7C266.5,-63.98 266.5,-54.71 266.5,-46.11"/>
<polygon fill="grey" stroke="grey" stroke-width="2" points="270,-46.1 266.5,-36.1 263,-46.1 270,-46.1"/>
</g>
<!-- 2 -->
<g id="node3" class="node">
<title>2</title>
<path fill="none" stroke="#61d856" stroke-width="2" d="M285.5,-180C285.5,-180 247.5,-180 247.5,-180 241.5,-180 235.5,-174 235.5,-168 235.5,-168 235.5,-156 235.5,-156 235.5,-150 241.5,-144 247.5,-144 247.5,-144 285.5,-144 285.5,-144 291.5,-144 297.5,-150 297.5,-156 297.5,-156 297.5,-168 297.5,-168 297.5,-174 291.5,-180 285.5,-180"/>
<text text-anchor="middle" x="266.5" y="-159.5" font-family="sans" font-size="10.00">gbk_prep</text>
</g>
<!-- 2&#45;&gt;1 -->
<g id="edge2" class="edge">
<title>2&#45;&gt;1</title>
<path fill="none" stroke="grey" stroke-width="2" d="M266.5,-143.7C266.5,-135.98 266.5,-126.71 266.5,-118.11"/>
<polygon fill="grey" stroke="grey" stroke-width="2" points="270,-118.1 266.5,-108.1 263,-118.1 270,-118.1"/>
</g>
<!-- 3 -->
<g id="node4" class="node">
<title>3</title>
<path fill="none" stroke="#56d892" stroke-width="2" d="M299.5,-252C299.5,-252 233.5,-252 233.5,-252 227.5,-252 221.5,-246 221.5,-240 221.5,-240 221.5,-228 221.5,-228 221.5,-222 227.5,-216 233.5,-216 233.5,-216 299.5,-216 299.5,-216 305.5,-216 311.5,-222 311.5,-228 311.5,-228 311.5,-240 311.5,-240 311.5,-246 305.5,-252 299.5,-252"/>
<text text-anchor="middle" x="266.5" y="-231.5" font-family="sans" font-size="10.00">gene_positions</text>
</g>
<!-- 3&#45;&gt;2 -->
<g id="edge3" class="edge">
<title>3&#45;&gt;2</title>
<path fill="none" stroke="grey" stroke-width="2" d="M266.5,-215.7C266.5,-207.98 266.5,-198.71 266.5,-190.11"/>
<polygon fill="grey" stroke="grey" stroke-width="2" points="270,-190.1 266.5,-180.1 263,-190.1 270,-190.1"/>
</g>
<!-- 4 -->
<g id="node5" class="node">
<title>4</title>
<path fill="none" stroke="#56d87b" stroke-width="2" d="M296.5,-324C296.5,-324 236.5,-324 236.5,-324 230.5,-324 224.5,-318 224.5,-312 224.5,-312 224.5,-300 224.5,-300 224.5,-294 230.5,-288 236.5,-288 236.5,-288 296.5,-288 296.5,-288 302.5,-288 308.5,-294 308.5,-300 308.5,-300 308.5,-312 308.5,-312 308.5,-318 302.5,-324 296.5,-324"/>
<text text-anchor="middle" x="266.5" y="-303.5" font-family="sans" font-size="10.00">second_mitos</text>
</g>
<!-- 4&#45;&gt;3 -->
<g id="edge4" class="edge">
<title>4&#45;&gt;3</title>
<path fill="none" stroke="grey" stroke-width="2" d="M266.5,-287.7C266.5,-279.98 266.5,-270.71 266.5,-262.11"/>
<polygon fill="grey" stroke="grey" stroke-width="2" points="270,-262.1 266.5,-252.1 263,-262.1 270,-262.1"/>
</g>
<!-- 5 -->
<g id="node6" class="node">
<title>5</title>
<path fill="none" stroke="#56d8a2" stroke-width="2" d="M281.5,-396C281.5,-396 251.5,-396 251.5,-396 245.5,-396 239.5,-390 239.5,-384 239.5,-384 239.5,-372 239.5,-372 239.5,-366 245.5,-360 251.5,-360 251.5,-360 281.5,-360 281.5,-360 287.5,-360 293.5,-366 293.5,-372 293.5,-372 293.5,-384 293.5,-384 293.5,-390 287.5,-396 281.5,-396"/>
<text text-anchor="middle" x="266.5" y="-375.5" font-family="sans" font-size="10.00">align</text>
</g>
<!-- 5&#45;&gt;4 -->
<g id="edge5" class="edge">
<title>5&#45;&gt;4</title>
<path fill="none" stroke="grey" stroke-width="2" d="M266.5,-359.7C266.5,-351.98 266.5,-342.71 266.5,-334.11"/>
<polygon fill="grey" stroke="grey" stroke-width="2" points="270,-334.1 266.5,-324.1 263,-334.1 270,-334.1"/>
</g>
<!-- 6 -->
<g id="node7" class="node">
<title>6</title>
<path fill="none" stroke="#d85656" stroke-width="2" d="M314.5,-468C314.5,-468 218.5,-468 218.5,-468 212.5,-468 206.5,-462 206.5,-456 206.5,-456 206.5,-444 206.5,-444 206.5,-438 212.5,-432 218.5,-432 218.5,-432 314.5,-432 314.5,-432 320.5,-432 326.5,-438 326.5,-444 326.5,-444 326.5,-456 326.5,-456 326.5,-462 320.5,-468 314.5,-468"/>
<text text-anchor="middle" x="266.5" y="-447.5" font-family="sans" font-size="10.00">reverse_complement</text>
</g>
<!-- 6&#45;&gt;5 -->
<g id="edge6" class="edge">
<title>6&#45;&gt;5</title>
<path fill="none" stroke="grey" stroke-width="2" d="M266.5,-431.7C266.5,-423.98 266.5,-414.71 266.5,-406.11"/>
<polygon fill="grey" stroke="grey" stroke-width="2" points="270,-406.1 266.5,-396.1 263,-406.1 270,-406.1"/>
</g>
<!-- 7 -->
<g id="node8" class="node">
<title>7</title>
<path fill="none" stroke="#56d863" stroke-width="2" d="M254.5,-540C254.5,-540 224.5,-540 224.5,-540 218.5,-540 212.5,-534 212.5,-528 212.5,-528 212.5,-516 212.5,-516 212.5,-510 218.5,-504 224.5,-504 224.5,-504 254.5,-504 254.5,-504 260.5,-504 266.5,-510 266.5,-516 266.5,-516 266.5,-528 266.5,-528 266.5,-534 260.5,-540 254.5,-540"/>
<text text-anchor="middle" x="239.5" y="-519.5" font-family="sans" font-size="10.00">roll</text>
</g>
<!-- 7&#45;&gt;6 -->
<g id="edge7" class="edge">
<title>7&#45;&gt;6</title>
<path fill="none" stroke="grey" stroke-width="2" d="M246.17,-503.7C249.21,-495.81 252.88,-486.3 256.26,-477.55"/>
<polygon fill="grey" stroke="grey" stroke-width="2" points="259.57,-478.69 259.9,-468.1 253.04,-476.17 259.57,-478.69"/>
</g>
<!-- 8 -->
<g id="node9" class="node">
<title>8</title>
<path fill="none" stroke="#bed856" stroke-width="2" d="M303.5,-612C303.5,-612 229.5,-612 229.5,-612 223.5,-612 217.5,-606 217.5,-600 217.5,-600 217.5,-588 217.5,-588 217.5,-582 223.5,-576 229.5,-576 229.5,-576 303.5,-576 303.5,-576 309.5,-576 315.5,-582 315.5,-588 315.5,-588 315.5,-600 315.5,-600 315.5,-606 309.5,-612 303.5,-612"/>
<text text-anchor="middle" x="266.5" y="-591.5" font-family="sans" font-size="10.00">annotation_stats</text>
</g>
<!-- 8&#45;&gt;6 -->
<g id="edge8" class="edge">
<title>8&#45;&gt;6</title>
<path fill="none" stroke="grey" stroke-width="2" d="M270.15,-575.91C272.18,-565.57 274.48,-552.09 275.5,-540 276.84,-524.06 276.84,-519.94 275.5,-504 274.78,-495.5 273.43,-486.31 271.99,-478.01"/>
<polygon fill="grey" stroke="grey" stroke-width="2" points="275.41,-477.29 270.15,-468.09 268.53,-478.56 275.41,-477.29"/>
</g>
<!-- 8&#45;&gt;7 -->
<g id="edge9" class="edge">
<title>8&#45;&gt;7</title>
<path fill="none" stroke="grey" stroke-width="2" d="M259.83,-575.7C256.79,-567.81 253.12,-558.3 249.74,-549.55"/>
<polygon fill="grey" stroke="grey" stroke-width="2" points="252.96,-548.17 246.1,-540.1 246.43,-550.69 252.96,-548.17"/>
</g>
<!-- 9 -->
<g id="node10" class="node">
<title>9</title>
<path fill="none" stroke="#d8c356" stroke-width="2" d="M281.5,-684C281.5,-684 251.5,-684 251.5,-684 245.5,-684 239.5,-678 239.5,-672 239.5,-672 239.5,-660 239.5,-660 239.5,-654 245.5,-648 251.5,-648 251.5,-648 281.5,-648 281.5,-648 287.5,-648 293.5,-654 293.5,-660 293.5,-660 293.5,-672 293.5,-672 293.5,-678 287.5,-684 281.5,-684"/>
<text text-anchor="middle" x="266.5" y="-663.5" font-family="sans" font-size="10.00">mitos</text>
</g>
<!-- 9&#45;&gt;8 -->
<g id="edge10" class="edge">
<title>9&#45;&gt;8</title>
<path fill="none" stroke="grey" stroke-width="2" d="M266.5,-647.7C266.5,-639.98 266.5,-630.71 266.5,-622.11"/>
<polygon fill="grey" stroke="grey" stroke-width="2" points="270,-622.1 266.5,-612.1 263,-622.1 270,-622.1"/>
</g>
<!-- 10 -->
<g id="node11" class="node">
<title>10</title>
<path fill="none" stroke="#d6d856" stroke-width="2" d="M319.5,-756C319.5,-756 289.5,-756 289.5,-756 283.5,-756 277.5,-750 277.5,-744 277.5,-744 277.5,-732 277.5,-732 277.5,-726 283.5,-720 289.5,-720 289.5,-720 319.5,-720 319.5,-720 325.5,-720 331.5,-726 331.5,-732 331.5,-732 331.5,-744 331.5,-744 331.5,-750 325.5,-756 319.5,-756"/>
<text text-anchor="middle" x="304.5" y="-735.5" font-family="sans" font-size="10.00">norgal</text>
</g>
<!-- 10&#45;&gt;9 -->
<g id="edge11" class="edge">
<title>10&#45;&gt;9</title>
<path fill="none" stroke="grey" stroke-width="2" d="M295.11,-719.7C290.74,-711.64 285.44,-701.89 280.6,-692.98"/>
<polygon fill="grey" stroke="grey" stroke-width="2" points="283.63,-691.22 275.79,-684.1 277.48,-694.56 283.63,-691.22"/>
</g>
<!-- 11 -->
<g id="node12" class="node">
<title>11</title>
<path fill="none" stroke="#d8b456" stroke-width="2" d="M169.5,-756C169.5,-756 113.5,-756 113.5,-756 107.5,-756 101.5,-750 101.5,-744 101.5,-744 101.5,-732 101.5,-732 101.5,-726 107.5,-720 113.5,-720 113.5,-720 169.5,-720 169.5,-720 175.5,-720 181.5,-726 181.5,-732 181.5,-732 181.5,-744 181.5,-744 181.5,-750 175.5,-756 169.5,-756"/>
<text text-anchor="middle" x="141.5" y="-735.5" font-family="sans" font-size="10.00">mitos_ref_db</text>
</g>
<!-- 11&#45;&gt;9 -->
<g id="edge14" class="edge">
<title>11&#45;&gt;9</title>
<path fill="none" stroke="grey" stroke-width="2" d="M172.08,-719.88C189.72,-710 212,-697.52 230.48,-687.17"/>
<polygon fill="grey" stroke="grey" stroke-width="2" points="232.2,-690.22 239.22,-682.28 228.78,-684.11 232.2,-690.22"/>
</g>
<!-- 12 -->
<g id="node13" class="node">
<title>12</title>
<path fill="none" stroke="#5682d8" stroke-width="2" d="M71,-756C71,-756 12,-756 12,-756 6,-756 0,-750 0,-744 0,-744 0,-732 0,-732 0,-726 6,-720 12,-720 12,-720 71,-720 71,-720 77,-720 83,-726 83,-732 83,-732 83,-744 83,-744 83,-750 77,-756 71,-756"/>
<text text-anchor="middle" x="41.5" y="-735.5" font-family="sans" font-size="10.00">get_organelle</text>
</g>
<!-- 12&#45;&gt;9 -->
<g id="edge16" class="edge">
<title>12&#45;&gt;9</title>
<path fill="none" stroke="grey" stroke-width="2" d="M83.22,-723C86.36,-721.97 89.48,-720.96 92.5,-720 139.6,-704.98 194.16,-688.51 229.45,-677.98"/>
<polygon fill="grey" stroke="grey" stroke-width="2" points="230.72,-681.25 239.31,-675.04 228.72,-674.54 230.72,-681.25"/>
</g>
<!-- 13 -->
<g id="node14" class="node">
<title>13</title>
<path fill="none" stroke="#56c9d8" stroke-width="2" d="M364,-828C364,-828 331,-828 331,-828 325,-828 319,-822 319,-816 319,-816 319,-804 319,-804 319,-798 325,-792 331,-792 331,-792 364,-792 364,-792 370,-792 376,-798 376,-804 376,-804 376,-816 376,-816 376,-822 370,-828 364,-828"/>
<text text-anchor="middle" x="347.5" y="-807.5" font-family="sans" font-size="10.00">mitoflex</text>
</g>
<!-- 13&#45;&gt;9 -->
<g id="edge13" class="edge">
<title>13&#45;&gt;9</title>
<path fill="none" stroke="grey" stroke-width="2" d="M350.24,-791.7C352.35,-772.81 353.07,-742.27 340.5,-720 331.88,-704.73 316.83,-692.74 302.54,-684.05"/>
<polygon fill="grey" stroke="grey" stroke-width="2" points="304.23,-680.99 293.81,-679.07 300.76,-687.07 304.23,-680.99"/>
</g>
<!-- 14 -->
<g id="node15" class="node">
<title>14</title>
<path fill="none" stroke="#78d856" stroke-width="2" d="M458.5,-828C458.5,-828 406.5,-828 406.5,-828 400.5,-828 394.5,-822 394.5,-816 394.5,-816 394.5,-804 394.5,-804 394.5,-798 400.5,-792 406.5,-792 406.5,-792 458.5,-792 458.5,-792 464.5,-792 470.5,-798 470.5,-804 470.5,-804 470.5,-816 470.5,-816 470.5,-822 464.5,-828 458.5,-828"/>
<text text-anchor="middle" x="432.5" y="-807.5" font-family="sans" font-size="10.00">NOVOplasty</text>
</g>
<!-- 14&#45;&gt;9 -->
<g id="edge12" class="edge">
<title>14&#45;&gt;9</title>
<path fill="none" stroke="grey" stroke-width="2" d="M421.18,-791.67C408.02,-772.46 384.85,-741.39 359.5,-720 342.45,-705.61 320.93,-693.06 302.89,-683.79"/>
<polygon fill="grey" stroke="grey" stroke-width="2" points="304.33,-680.59 293.82,-679.25 301.19,-686.85 304.33,-680.59"/>
</g>
<!-- 15 -->
<g id="node16" class="node">
<title>15</title>
<path fill="none" stroke="#569ad8" stroke-width="2" d="M247.5,-756C247.5,-756 211.5,-756 211.5,-756 205.5,-756 199.5,-750 199.5,-744 199.5,-744 199.5,-732 199.5,-732 199.5,-726 205.5,-720 211.5,-720 211.5,-720 247.5,-720 247.5,-720 253.5,-720 259.5,-726 259.5,-732 259.5,-732 259.5,-744 259.5,-744 259.5,-750 253.5,-756 247.5,-756"/>
<text text-anchor="middle" x="229.5" y="-735.5" font-family="sans" font-size="10.00">MITObim</text>
</g>
<!-- 15&#45;&gt;9 -->
<g id="edge15" class="edge">
<title>15&#45;&gt;9</title>
<path fill="none" stroke="grey" stroke-width="2" d="M238.65,-719.7C242.9,-711.64 248.06,-701.89 252.77,-692.98"/>
<polygon fill="grey" stroke="grey" stroke-width="2" points="255.88,-694.58 257.46,-684.1 249.69,-691.31 255.88,-694.58"/>
</g>
<!-- 16 -->
<g id="node17" class="node">
<title>16</title>
<path fill="none" stroke="#56d8d0" stroke-width="2" d="M263.5,-900C263.5,-900 217.5,-900 217.5,-900 211.5,-900 205.5,-894 205.5,-888 205.5,-888 205.5,-876 205.5,-876 205.5,-870 211.5,-864 217.5,-864 217.5,-864 263.5,-864 263.5,-864 269.5,-864 275.5,-870 275.5,-876 275.5,-876 275.5,-888 275.5,-888 275.5,-894 269.5,-900 263.5,-900"/>
<text text-anchor="middle" x="240.5" y="-879.5" font-family="sans" font-size="10.00">subsample</text>
</g>
<!-- 16&#45;&gt;10 -->
<g id="edge17" class="edge">
<title>16&#45;&gt;10</title>
<path fill="none" stroke="grey" stroke-width="2" d="M251.62,-863.75C257.91,-853.58 265.66,-840.33 271.5,-828 281.15,-807.61 289.92,-783.58 295.99,-765.63"/>
<polygon fill="grey" stroke="grey" stroke-width="2" points="299.32,-766.68 299.15,-756.09 292.68,-764.48 299.32,-766.68"/>
</g>
<!-- 16&#45;&gt;12 -->
<g id="edge18" class="edge">
<title>16&#45;&gt;12</title>
<path fill="none" stroke="grey" stroke-width="2" d="M216.5,-863.87C180.86,-838.44 113.89,-790.65 73.93,-762.14"/>
<polygon fill="grey" stroke="grey" stroke-width="2" points="75.76,-759.15 65.59,-756.19 71.7,-764.85 75.76,-759.15"/>
</g>
<!-- 16&#45;&gt;13 -->
<g id="edge19" class="edge">
<title>16&#45;&gt;13</title>
<path fill="none" stroke="grey" stroke-width="2" d="M266.68,-863.88C280.54,-854.81 297.74,-843.55 312.71,-833.76"/>
<polygon fill="grey" stroke="grey" stroke-width="2" points="314.77,-836.59 321.22,-828.19 310.94,-830.74 314.77,-836.59"/>
</g>
<!-- 16&#45;&gt;14 -->
<g id="edge21" class="edge">
<title>16&#45;&gt;14</title>
<path fill="none" stroke="grey" stroke-width="2" d="M275.85,-867.58C279.11,-866.37 282.37,-865.16 285.5,-864 327.05,-848.67 339.53,-844.54 384.78,-828.25"/>
<polygon fill="grey" stroke="grey" stroke-width="2" points="386.06,-831.51 394.28,-824.83 383.69,-824.93 386.06,-831.51"/>
</g>
<!-- 19 -->
<g id="node20" class="node">
<title>19</title>
<path fill="none" stroke="#56b1d8" stroke-width="2" d="M250.5,-828C250.5,-828 208.5,-828 208.5,-828 202.5,-828 196.5,-822 196.5,-816 196.5,-816 196.5,-804 196.5,-804 196.5,-798 202.5,-792 208.5,-792 208.5,-792 250.5,-792 250.5,-792 256.5,-792 262.5,-798 262.5,-804 262.5,-804 262.5,-816 262.5,-816 262.5,-822 256.5,-828 250.5,-828"/>
<text text-anchor="middle" x="229.5" y="-807.5" font-family="sans" font-size="10.00">interleave</text>
</g>
<!-- 16&#45;&gt;19 -->
<g id="edge25" class="edge">
<title>16&#45;&gt;19</title>
<path fill="none" stroke="grey" stroke-width="2" d="M237.78,-863.7C236.57,-855.98 235.11,-846.71 233.76,-838.11"/>
<polygon fill="grey" stroke="grey" stroke-width="2" points="237.2,-837.44 232.19,-828.1 230.28,-838.53 237.2,-837.44"/>
</g>
<!-- 17 -->
<g id="node18" class="node">
<title>17</title>
<path fill="none" stroke="#566bd8" stroke-width="2" d="M389,-900C389,-900 306,-900 306,-900 300,-900 294,-894 294,-888 294,-888 294,-876 294,-876 294,-870 300,-864 306,-864 306,-864 389,-864 389,-864 395,-864 401,-870 401,-876 401,-876 401,-888 401,-888 401,-894 395,-900 389,-900"/>
<text text-anchor="middle" x="347.5" y="-879.5" font-family="sans" font-size="10.00">setup_mitoflex_db</text>
</g>
<!-- 17&#45;&gt;13 -->
<g id="edge20" class="edge">
<title>17&#45;&gt;13</title>
<path fill="none" stroke="grey" stroke-width="2" d="M347.5,-863.7C347.5,-855.98 347.5,-846.71 347.5,-838.11"/>
<polygon fill="grey" stroke="grey" stroke-width="2" points="351,-838.1 347.5,-828.1 344,-838.1 351,-838.1"/>
</g>
<!-- 18 -->
<g id="node19" class="node">
<title>18</title>
<path fill="none" stroke="#8fd856" stroke-width="2" d="M482,-900C482,-900 431,-900 431,-900 425,-900 419,-894 419,-888 419,-888 419,-876 419,-876 419,-870 425,-864 431,-864 431,-864 482,-864 482,-864 488,-864 494,-870 494,-876 494,-876 494,-888 494,-888 494,-894 488,-900 482,-900"/>
<text text-anchor="middle" x="456.5" y="-879.5" font-family="sans" font-size="10.00">NOVOconfig</text>
</g>
<!-- 18&#45;&gt;14 -->
<g id="edge22" class="edge">
<title>18&#45;&gt;14</title>
<path fill="none" stroke="grey" stroke-width="2" d="M450.57,-863.7C447.89,-855.9 444.67,-846.51 441.7,-837.83"/>
<polygon fill="grey" stroke="grey" stroke-width="2" points="444.92,-836.43 438.36,-828.1 438.3,-838.7 444.92,-836.43"/>
</g>
<!-- 19&#45;&gt;15 -->
<g id="edge23" class="edge">
<title>19&#45;&gt;15</title>
<path fill="none" stroke="grey" stroke-width="2" d="M229.5,-791.7C229.5,-783.98 229.5,-774.71 229.5,-766.11"/>
<polygon fill="grey" stroke="grey" stroke-width="2" points="233,-766.1 229.5,-756.1 226,-766.1 233,-766.1"/>
</g>
<!-- 20 -->
<g id="node21" class="node">
<title>20</title>
<path fill="none" stroke="#56d8b9" stroke-width="2" d="M268.5,-972C268.5,-972 212.5,-972 212.5,-972 206.5,-972 200.5,-966 200.5,-960 200.5,-960 200.5,-948 200.5,-948 200.5,-942 206.5,-936 212.5,-936 212.5,-936 268.5,-936 268.5,-936 274.5,-936 280.5,-942 280.5,-948 280.5,-948 280.5,-960 280.5,-960 280.5,-966 274.5,-972 268.5,-972"/>
<text text-anchor="middle" x="240.5" y="-951.5" font-family="sans" font-size="10.00">trimmomatic</text>
</g>
<!-- 20&#45;&gt;16 -->
<g id="edge24" class="edge">
<title>20&#45;&gt;16</title>
<path fill="none" stroke="grey" stroke-width="2" d="M240.5,-935.7C240.5,-927.98 240.5,-918.71 240.5,-910.11"/>
<polygon fill="grey" stroke="grey" stroke-width="2" points="244,-910.1 240.5,-900.1 237,-910.1 244,-910.1"/>
</g>
<!-- 21 -->
<g id="node22" class="node">
<title>21</title>
<path fill="none" stroke="#d86e56" stroke-width="2" d="M263,-1044C263,-1044 218,-1044 218,-1044 212,-1044 206,-1038 206,-1032 206,-1032 206,-1020 206,-1020 206,-1014 212,-1008 218,-1008 218,-1008 263,-1008 263,-1008 269,-1008 275,-1014 275,-1020 275,-1020 275,-1032 275,-1032 275,-1038 269,-1044 263,-1044"/>
<text text-anchor="middle" x="240.5" y="-1023.5" font-family="sans" font-size="10.00">fastqdump</text>
</g>
<!-- 21&#45;&gt;20 -->
<g id="edge26" class="edge">
<title>21&#45;&gt;20</title>
<path fill="none" stroke="grey" stroke-width="2" d="M240.5,-1007.7C240.5,-999.98 240.5,-990.71 240.5,-982.11"/>
<polygon fill="grey" stroke="grey" stroke-width="2" points="244,-982.1 240.5,-972.1 237,-982.1 244,-982.1"/>
</g>
</g>
</svg>
