<?xml version="1.0" encoding="UTF-8" standalone="no"?>
<!DOCTYPE svg PUBLIC "-//W3C//DTD SVG 1.1//EN"
 "http://www.w3.org/Graphics/SVG/1.1/DTD/svg11.dtd">
<!-- Generated by graphviz version 2.38.0 (20140413.2041)
 -->
<!-- Title: snakemake_dag Pages: 1 -->
<svg width="502pt" height="620pt"
 viewBox="0.00 0.00 502.00 620.00" xmlns="http://www.w3.org/2000/svg" xmlns:xlink="http://www.w3.org/1999/xlink">
<g id="graph0" class="graph" transform="scale(1 1) rotate(0) translate(4 616)">
<title>snakemake_dag</title>
<polygon fill="white" stroke="none" points="-4,4 -4,-616 498,-616 498,4 -4,4"/>
<!-- 0 -->
<g id="node1" class="node"><title>0</title>
<path fill="none" stroke="#56d873" stroke-width="2" d="M291.5,-36C291.5,-36 261.5,-36 261.5,-36 255.5,-36 249.5,-30 249.5,-24 249.5,-24 249.5,-12 249.5,-12 249.5,-6 255.5,-0 261.5,-0 261.5,-0 291.5,-0 291.5,-0 297.5,-0 303.5,-6 303.5,-12 303.5,-12 303.5,-24 303.5,-24 303.5,-30 297.5,-36 291.5,-36"/>
<text text-anchor="middle" x="276.5" y="-15.5" font-family="sans" font-size="10.00">all</text>
</g>
<!-- 1 -->
<g id="node2" class="node"><title>1</title>
<path fill="none" stroke="#c6d856" stroke-width="2" d="M266.5,-108C266.5,-108 192.5,-108 192.5,-108 186.5,-108 180.5,-102 180.5,-96 180.5,-96 180.5,-84 180.5,-84 180.5,-78 186.5,-72 192.5,-72 192.5,-72 266.5,-72 266.5,-72 272.5,-72 278.5,-78 278.5,-84 278.5,-84 278.5,-96 278.5,-96 278.5,-102 272.5,-108 266.5,-108"/>
<text text-anchor="middle" x="229.5" y="-87.5" font-family="sans" font-size="10.00">annotation_stats</text>
</g>
<!-- 1&#45;&gt;0 -->
<g id="edge1" class="edge"><title>1&#45;&gt;0</title>
<path fill="none" stroke="grey" stroke-width="2" d="M241.118,-71.6966C246.639,-63.4741 253.347,-53.4832 259.432,-44.4207"/>
<polygon fill="grey" stroke="grey" stroke-width="2" points="262.347,-46.3576 265.016,-36.1043 256.535,-42.4555 262.347,-46.3576"/>
</g>
<!-- 2 -->
<g id="node3" class="node"><title>2</title>
<path fill="none" stroke="#8fd856" stroke-width="2" d="M338.5,-108C338.5,-108 308.5,-108 308.5,-108 302.5,-108 296.5,-102 296.5,-96 296.5,-96 296.5,-84 296.5,-84 296.5,-78 302.5,-72 308.5,-72 308.5,-72 338.5,-72 338.5,-72 344.5,-72 350.5,-78 350.5,-84 350.5,-84 350.5,-96 350.5,-96 350.5,-102 344.5,-108 338.5,-108"/>
<text text-anchor="middle" x="323.5" y="-87.5" font-family="sans" font-size="10.00">align</text>
</g>
<!-- 2&#45;&gt;0 -->
<g id="edge2" class="edge"><title>2&#45;&gt;0</title>
<path fill="none" stroke="grey" stroke-width="2" d="M311.882,-71.6966C306.361,-63.4741 299.653,-53.4832 293.568,-44.4207"/>
<polygon fill="grey" stroke="grey" stroke-width="2" points="296.465,-42.4555 287.984,-36.1043 290.653,-46.3576 296.465,-42.4555"/>
</g>
<!-- 3 -->
<g id="node4" class="node"><title>3</title>
<path fill="none" stroke="#5692d8" stroke-width="2" d="M281.5,-252C281.5,-252 251.5,-252 251.5,-252 245.5,-252 239.5,-246 239.5,-240 239.5,-240 239.5,-228 239.5,-228 239.5,-222 245.5,-216 251.5,-216 251.5,-216 281.5,-216 281.5,-216 287.5,-216 293.5,-222 293.5,-228 293.5,-228 293.5,-240 293.5,-240 293.5,-246 287.5,-252 281.5,-252"/>
<text text-anchor="middle" x="266.5" y="-231.5" font-family="sans" font-size="10.00">mitos</text>
</g>
<!-- 3&#45;&gt;1 -->
<g id="edge3" class="edge"><title>3&#45;&gt;1</title>
<path fill="none" stroke="grey" stroke-width="2" d="M262.037,-215.871C255.703,-191.564 244.044,-146.819 236.539,-118.013"/>
<polygon fill="grey" stroke="grey" stroke-width="2" points="239.887,-116.984 233.979,-108.189 233.113,-118.749 239.887,-116.984"/>
</g>
<!-- 4 -->
<g id="node5" class="node"><title>4</title>
<path fill="none" stroke="#d8ac56" stroke-width="2" d="M328.5,-180C328.5,-180 298.5,-180 298.5,-180 292.5,-180 286.5,-174 286.5,-168 286.5,-168 286.5,-156 286.5,-156 286.5,-150 292.5,-144 298.5,-144 298.5,-144 328.5,-144 328.5,-144 334.5,-144 340.5,-150 340.5,-156 340.5,-156 340.5,-168 340.5,-168 340.5,-174 334.5,-180 328.5,-180"/>
<text text-anchor="middle" x="313.5" y="-159.5" font-family="sans" font-size="10.00">roll</text>
</g>
<!-- 3&#45;&gt;4 -->
<g id="edge11" class="edge"><title>3&#45;&gt;4</title>
<path fill="none" stroke="grey" stroke-width="2" d="M278.118,-215.697C283.639,-207.474 290.347,-197.483 296.432,-188.421"/>
<polygon fill="grey" stroke="grey" stroke-width="2" points="299.347,-190.358 302.016,-180.104 293.535,-186.456 299.347,-190.358"/>
</g>
<!-- 4&#45;&gt;2 -->
<g id="edge4" class="edge"><title>4&#45;&gt;2</title>
<path fill="none" stroke="grey" stroke-width="2" d="M315.972,-143.697C317.074,-135.983 318.398,-126.712 319.627,-118.112"/>
<polygon fill="grey" stroke="grey" stroke-width="2" points="323.107,-118.499 321.057,-108.104 316.177,-117.509 323.107,-118.499"/>
</g>
<!-- 5 -->
<g id="node6" class="node"><title>5</title>
<path fill="none" stroke="#56c9d8" stroke-width="2" d="M319.5,-324C319.5,-324 289.5,-324 289.5,-324 283.5,-324 277.5,-318 277.5,-312 277.5,-312 277.5,-300 277.5,-300 277.5,-294 283.5,-288 289.5,-288 289.5,-288 319.5,-288 319.5,-288 325.5,-288 331.5,-294 331.5,-300 331.5,-300 331.5,-312 331.5,-312 331.5,-318 325.5,-324 319.5,-324"/>
<text text-anchor="middle" x="304.5" y="-303.5" font-family="sans" font-size="10.00">norgal</text>
</g>
<!-- 5&#45;&gt;3 -->
<g id="edge8" class="edge"><title>5&#45;&gt;3</title>
<path fill="none" stroke="grey" stroke-width="2" d="M295.107,-287.697C290.735,-279.644 285.443,-269.894 280.605,-260.982"/>
<polygon fill="grey" stroke="grey" stroke-width="2" points="283.632,-259.223 275.785,-252.104 277.48,-262.563 283.632,-259.223"/>
</g>
<!-- 6 -->
<g id="node7" class="node"><title>6</title>
<path fill="none" stroke="#d88d56" stroke-width="2" d="M169.5,-324C169.5,-324 113.5,-324 113.5,-324 107.5,-324 101.5,-318 101.5,-312 101.5,-312 101.5,-300 101.5,-300 101.5,-294 107.5,-288 113.5,-288 113.5,-288 169.5,-288 169.5,-288 175.5,-288 181.5,-294 181.5,-300 181.5,-300 181.5,-312 181.5,-312 181.5,-318 175.5,-324 169.5,-324"/>
<text text-anchor="middle" x="141.5" y="-303.5" font-family="sans" font-size="10.00">mitos_ref_db</text>
</g>
<!-- 6&#45;&gt;3 -->
<g id="edge5" class="edge"><title>6&#45;&gt;3</title>
<path fill="none" stroke="grey" stroke-width="2" d="M172.078,-287.876C189.719,-277.998 211.996,-265.522 230.482,-255.17"/>
<polygon fill="grey" stroke="grey" stroke-width="2" points="232.201,-258.219 239.215,-250.279 228.78,-252.112 232.201,-258.219"/>
</g>
<!-- 7 -->
<g id="node8" class="node"><title>7</title>
<path fill="none" stroke="#d8cb56" stroke-width="2" d="M71,-324C71,-324 12,-324 12,-324 6,-324 0,-318 0,-312 0,-312 0,-300 0,-300 0,-294 6,-288 12,-288 12,-288 71,-288 71,-288 77,-288 83,-294 83,-300 83,-300 83,-312 83,-312 83,-318 77,-324 71,-324"/>
<text text-anchor="middle" x="41.5" y="-303.5" font-family="sans" font-size="10.00">get_organelle</text>
</g>
<!-- 7&#45;&gt;3 -->
<g id="edge6" class="edge"><title>7&#45;&gt;3</title>
<path fill="none" stroke="grey" stroke-width="2" d="M83.2196,-290.995C86.357,-289.972 89.4768,-288.964 92.5,-288 139.598,-272.98 194.161,-256.511 229.447,-245.981"/>
<polygon fill="grey" stroke="grey" stroke-width="2" points="230.722,-249.253 239.307,-243.044 228.724,-242.545 230.722,-249.253"/>
</g>
<!-- 8 -->
<g id="node9" class="node"><title>8</title>
<path fill="none" stroke="#d85656" stroke-width="2" d="M364,-396C364,-396 331,-396 331,-396 325,-396 319,-390 319,-384 319,-384 319,-372 319,-372 319,-366 325,-360 331,-360 331,-360 364,-360 364,-360 370,-360 376,-366 376,-372 376,-372 376,-384 376,-384 376,-390 370,-396 364,-396"/>
<text text-anchor="middle" x="347.5" y="-375.5" font-family="sans" font-size="10.00">mitoflex</text>
</g>
<!-- 8&#45;&gt;3 -->
<g id="edge10" class="edge"><title>8&#45;&gt;3</title>
<path fill="none" stroke="grey" stroke-width="2" d="M350.241,-359.7C352.345,-340.805 353.071,-310.271 340.5,-288 331.88,-272.729 316.829,-260.739 302.541,-252.054"/>
<polygon fill="grey" stroke="grey" stroke-width="2" points="304.229,-248.987 293.808,-247.074 300.761,-255.068 304.229,-248.987"/>
</g>
<!-- 9 -->
<g id="node10" class="node"><title>9</title>
<path fill="none" stroke="#56d8c9" stroke-width="2" d="M458.5,-396C458.5,-396 406.5,-396 406.5,-396 400.5,-396 394.5,-390 394.5,-384 394.5,-384 394.5,-372 394.5,-372 394.5,-366 400.5,-360 406.5,-360 406.5,-360 458.5,-360 458.5,-360 464.5,-360 470.5,-366 470.5,-372 470.5,-372 470.5,-384 470.5,-384 470.5,-390 464.5,-396 458.5,-396"/>
<text text-anchor="middle" x="432.5" y="-375.5" font-family="sans" font-size="10.00">NOVOplasty</text>
</g>
<!-- 9&#45;&gt;3 -->
<g id="edge9" class="edge"><title>9&#45;&gt;3</title>
<path fill="none" stroke="grey" stroke-width="2" d="M421.633,-359.98C408.761,-340.776 385.843,-309.433 360.5,-288 343.202,-273.371 321.273,-260.737 302.947,-251.477"/>
<polygon fill="grey" stroke="grey" stroke-width="2" points="304.254,-248.22 293.735,-246.95 301.166,-254.502 304.254,-248.22"/>
</g>
<!-- 10 -->
<g id="node11" class="node"><title>10</title>
<path fill="none" stroke="#70d856" stroke-width="2" d="M247.5,-324C247.5,-324 211.5,-324 211.5,-324 205.5,-324 199.5,-318 199.5,-312 199.5,-312 199.5,-300 199.5,-300 199.5,-294 205.5,-288 211.5,-288 211.5,-288 247.5,-288 247.5,-288 253.5,-288 259.5,-294 259.5,-300 259.5,-300 259.5,-312 259.5,-312 259.5,-318 253.5,-324 247.5,-324"/>
<text text-anchor="middle" x="229.5" y="-303.5" font-family="sans" font-size="10.00">MITObim</text>
</g>
<!-- 10&#45;&gt;3 -->
<g id="edge7" class="edge"><title>10&#45;&gt;3</title>
<path fill="none" stroke="grey" stroke-width="2" d="M238.646,-287.697C242.903,-279.644 248.056,-269.894 252.766,-260.982"/>
<polygon fill="grey" stroke="grey" stroke-width="2" points="255.88,-262.581 257.459,-252.104 249.692,-259.31 255.88,-262.581"/>
</g>
<!-- 11 -->
<g id="node12" class="node"><title>11</title>
<path fill="none" stroke="#d87556" stroke-width="2" d="M263.5,-468C263.5,-468 217.5,-468 217.5,-468 211.5,-468 205.5,-462 205.5,-456 205.5,-456 205.5,-444 205.5,-444 205.5,-438 211.5,-432 217.5,-432 217.5,-432 263.5,-432 263.5,-432 269.5,-432 275.5,-438 275.5,-444 275.5,-444 275.5,-456 275.5,-456 275.5,-462 269.5,-468 263.5,-468"/>
<text text-anchor="middle" x="240.5" y="-447.5" font-family="sans" font-size="10.00">subsample</text>
</g>
<!-- 11&#45;&gt;5 -->
<g id="edge12" class="edge"><title>11&#45;&gt;5</title>
<path fill="none" stroke="grey" stroke-width="2" d="M251.621,-431.749C257.912,-421.582 265.662,-408.332 271.5,-396 281.153,-375.61 289.919,-351.577 295.986,-333.628"/>
<polygon fill="grey" stroke="grey" stroke-width="2" points="299.323,-334.684 299.15,-324.091 292.679,-332.48 299.323,-334.684"/>
</g>
<!-- 11&#45;&gt;7 -->
<g id="edge13" class="edge"><title>11&#45;&gt;7</title>
<path fill="none" stroke="grey" stroke-width="2" d="M216.496,-431.871C180.862,-406.444 113.888,-358.654 73.9265,-330.139"/>
<polygon fill="grey" stroke="grey" stroke-width="2" points="75.7623,-327.149 65.5892,-324.189 71.6963,-332.847 75.7623,-327.149"/>
</g>
<!-- 11&#45;&gt;8 -->
<g id="edge14" class="edge"><title>11&#45;&gt;8</title>
<path fill="none" stroke="grey" stroke-width="2" d="M266.675,-431.876C280.536,-422.808 297.741,-411.552 312.711,-401.759"/>
<polygon fill="grey" stroke="grey" stroke-width="2" points="314.772,-404.593 321.224,-396.19 310.94,-398.735 314.772,-404.593"/>
</g>
<!-- 11&#45;&gt;9 -->
<g id="edge16" class="edge"><title>11&#45;&gt;9</title>
<path fill="none" stroke="grey" stroke-width="2" d="M275.535,-435.374C278.563,-434.223 281.584,-433.085 284.5,-432 303.204,-425.039 348.84,-408.734 384.532,-396.033"/>
<polygon fill="grey" stroke="grey" stroke-width="2" points="386.056,-399.206 394.305,-392.557 383.71,-392.61 386.056,-399.206"/>
</g>
<!-- 14 -->
<g id="node15" class="node"><title>14</title>
<path fill="none" stroke="#5673d8" stroke-width="2" d="M250.5,-396C250.5,-396 208.5,-396 208.5,-396 202.5,-396 196.5,-390 196.5,-384 196.5,-384 196.5,-372 196.5,-372 196.5,-366 202.5,-360 208.5,-360 208.5,-360 250.5,-360 250.5,-360 256.5,-360 262.5,-366 262.5,-372 262.5,-372 262.5,-384 262.5,-384 262.5,-390 256.5,-396 250.5,-396"/>
<text text-anchor="middle" x="229.5" y="-375.5" font-family="sans" font-size="10.00">interleave</text>
</g>
<!-- 11&#45;&gt;14 -->
<g id="edge20" class="edge"><title>11&#45;&gt;14</title>
<path fill="none" stroke="grey" stroke-width="2" d="M237.781,-431.697C236.569,-423.983 235.112,-414.712 233.761,-406.112"/>
<polygon fill="grey" stroke="grey" stroke-width="2" points="237.198,-405.44 232.188,-396.104 230.283,-406.526 237.198,-405.44"/>
</g>
<!-- 12 -->
<g id="node13" class="node"><title>12</title>
<path fill="none" stroke="#afd856" stroke-width="2" d="M389,-468C389,-468 306,-468 306,-468 300,-468 294,-462 294,-456 294,-456 294,-444 294,-444 294,-438 300,-432 306,-432 306,-432 389,-432 389,-432 395,-432 401,-438 401,-444 401,-444 401,-456 401,-456 401,-462 395,-468 389,-468"/>
<text text-anchor="middle" x="347.5" y="-447.5" font-family="sans" font-size="10.00">setup_mitoflex_db</text>
</g>
<!-- 12&#45;&gt;8 -->
<g id="edge15" class="edge"><title>12&#45;&gt;8</title>
<path fill="none" stroke="grey" stroke-width="2" d="M347.5,-431.697C347.5,-423.983 347.5,-414.712 347.5,-406.112"/>
<polygon fill="grey" stroke="grey" stroke-width="2" points="351,-406.104 347.5,-396.104 344,-406.104 351,-406.104"/>
</g>
<!-- 13 -->
<g id="node14" class="node"><title>13</title>
<path fill="none" stroke="#56a9d8" stroke-width="2" d="M482,-468C482,-468 431,-468 431,-468 425,-468 419,-462 419,-456 419,-456 419,-444 419,-444 419,-438 425,-432 431,-432 431,-432 482,-432 482,-432 488,-432 494,-438 494,-444 494,-444 494,-456 494,-456 494,-462 488,-468 482,-468"/>
<text text-anchor="middle" x="456.5" y="-447.5" font-family="sans" font-size="10.00">NOVOconfig</text>
</g>
<!-- 13&#45;&gt;9 -->
<g id="edge17" class="edge"><title>13&#45;&gt;9</title>
<path fill="none" stroke="grey" stroke-width="2" d="M450.567,-431.697C447.894,-423.898 444.674,-414.509 441.699,-405.829"/>
<polygon fill="grey" stroke="grey" stroke-width="2" points="444.918,-404.429 438.364,-396.104 438.297,-406.699 444.918,-404.429"/>
</g>
<!-- 14&#45;&gt;10 -->
<g id="edge18" class="edge"><title>14&#45;&gt;10</title>
<path fill="none" stroke="grey" stroke-width="2" d="M229.5,-359.697C229.5,-351.983 229.5,-342.712 229.5,-334.112"/>
<polygon fill="grey" stroke="grey" stroke-width="2" points="233,-334.104 229.5,-324.104 226,-334.104 233,-334.104"/>
</g>
<!-- 15 -->
<g id="node16" class="node"><title>15</title>
<path fill="none" stroke="#59d856" stroke-width="2" d="M268.5,-540C268.5,-540 212.5,-540 212.5,-540 206.5,-540 200.5,-534 200.5,-528 200.5,-528 200.5,-516 200.5,-516 200.5,-510 206.5,-504 212.5,-504 212.5,-504 268.5,-504 268.5,-504 274.5,-504 280.5,-510 280.5,-516 280.5,-516 280.5,-528 280.5,-528 280.5,-534 274.5,-540 268.5,-540"/>
<text text-anchor="middle" x="240.5" y="-519.5" font-family="sans" font-size="10.00">trimmomatic</text>
</g>
<!-- 15&#45;&gt;11 -->
<g id="edge19" class="edge"><title>15&#45;&gt;11</title>
<path fill="none" stroke="grey" stroke-width="2" d="M240.5,-503.697C240.5,-495.983 240.5,-486.712 240.5,-478.112"/>
<polygon fill="grey" stroke="grey" stroke-width="2" points="244,-478.104 240.5,-468.104 237,-478.104 244,-478.104"/>
</g>
<!-- 16 -->
<g id="node17" class="node"><title>16</title>
<path fill="none" stroke="#56d892" stroke-width="2" d="M263,-612C263,-612 218,-612 218,-612 212,-612 206,-606 206,-600 206,-600 206,-588 206,-588 206,-582 212,-576 218,-576 218,-576 263,-576 263,-576 269,-576 275,-582 275,-588 275,-588 275,-600 275,-600 275,-606 269,-612 263,-612"/>
<text text-anchor="middle" x="240.5" y="-591.5" font-family="sans" font-size="10.00">fastqdump</text>
</g>
<!-- 16&#45;&gt;15 -->
<g id="edge21" class="edge"><title>16&#45;&gt;15</title>
<path fill="none" stroke="grey" stroke-width="2" d="M240.5,-575.697C240.5,-567.983 240.5,-558.712 240.5,-550.112"/>
<polygon fill="grey" stroke="grey" stroke-width="2" points="244,-550.104 240.5,-540.104 237,-550.104 244,-550.104"/>
</g>
</g>
</svg>
