<?xml version="1.0" encoding="UTF-8" standalone="no"?>
<!DOCTYPE svg PUBLIC "-//W3C//DTD SVG 1.1//EN"
 "http://www.w3.org/Graphics/SVG/1.1/DTD/svg11.dtd">
<!-- Generated by graphviz version 2.42.3 (20191010.1750)
 -->
<!-- Title: snakemake_dag Pages: 1 -->
<svg width="502pt" height="980pt"
 viewBox="0.00 0.00 502.00 980.00" xmlns="http://www.w3.org/2000/svg" xmlns:xlink="http://www.w3.org/1999/xlink">
<g id="graph0" class="graph" transform="scale(1 1) rotate(0) translate(4 976)">
<title>snakemake_dag</title>
<polygon fill="white" stroke="transparent" points="-4,4 -4,-976 498,-976 498,4 -4,4"/>
<!-- 0 -->
<g id="node1" class="node">
<title>0</title>
<path fill="none" stroke="#a7d856" stroke-width="2" d="M281.5,-36C281.5,-36 251.5,-36 251.5,-36 245.5,-36 239.5,-30 239.5,-24 239.5,-24 239.5,-12 239.5,-12 239.5,-6 245.5,0 251.5,0 251.5,0 281.5,0 281.5,0 287.5,0 293.5,-6 293.5,-12 293.5,-12 293.5,-24 293.5,-24 293.5,-30 287.5,-36 281.5,-36"/>
<text text-anchor="middle" x="266.5" y="-15.5" font-family="sans" font-size="10.00">all</text>
</g>
<!-- 1 -->
<g id="node2" class="node">
<title>1</title>
<path fill="none" stroke="#56c9d8" stroke-width="2" d="M281.5,-108C281.5,-108 251.5,-108 251.5,-108 245.5,-108 239.5,-102 239.5,-96 239.5,-96 239.5,-84 239.5,-84 239.5,-78 245.5,-72 251.5,-72 251.5,-72 281.5,-72 281.5,-72 287.5,-72 293.5,-78 293.5,-84 293.5,-84 293.5,-96 293.5,-96 293.5,-102 287.5,-108 281.5,-108"/>
<text text-anchor="middle" x="266.5" y="-87.5" font-family="sans" font-size="10.00">CCT</text>
</g>
<!-- 1&#45;&gt;0 -->
<g id="edge1" class="edge">
<title>1&#45;&gt;0</title>
<path fill="none" stroke="grey" stroke-width="2" d="M266.5,-71.7C266.5,-63.98 266.5,-54.71 266.5,-46.11"/>
<polygon fill="grey" stroke="grey" stroke-width="2" points="270,-46.1 266.5,-36.1 263,-46.1 270,-46.1"/>
</g>
<!-- 2 -->
<g id="node3" class="node">
<title>2</title>
<path fill="none" stroke="#d8c356" stroke-width="2" d="M285.5,-180C285.5,-180 247.5,-180 247.5,-180 241.5,-180 235.5,-174 235.5,-168 235.5,-168 235.5,-156 235.5,-156 235.5,-150 241.5,-144 247.5,-144 247.5,-144 285.5,-144 285.5,-144 291.5,-144 297.5,-150 297.5,-156 297.5,-156 297.5,-168 297.5,-168 297.5,-174 291.5,-180 285.5,-180"/>
<text text-anchor="middle" x="266.5" y="-159.5" font-family="sans" font-size="10.00">gbk_prep</text>
</g>
<!-- 2&#45;&gt;1 -->
<g id="edge2" class="edge">
<title>2&#45;&gt;1</title>
<path fill="none" stroke="grey" stroke-width="2" d="M266.5,-143.7C266.5,-135.98 266.5,-126.71 266.5,-118.11"/>
<polygon fill="grey" stroke="grey" stroke-width="2" points="270,-118.1 266.5,-108.1 263,-118.1 270,-118.1"/>
</g>
<!-- 3 -->
<g id="node4" class="node">
<title>3</title>
<path fill="none" stroke="#d6d856" stroke-width="2" d="M299.5,-252C299.5,-252 233.5,-252 233.5,-252 227.5,-252 221.5,-246 221.5,-240 221.5,-240 221.5,-228 221.5,-228 221.5,-222 227.5,-216 233.5,-216 233.5,-216 299.5,-216 299.5,-216 305.5,-216 311.5,-222 311.5,-228 311.5,-228 311.5,-240 311.5,-240 311.5,-246 305.5,-252 299.5,-252"/>
<text text-anchor="middle" x="266.5" y="-231.5" font-family="sans" font-size="10.00">gene_positions</text>
</g>
<!-- 3&#45;&gt;2 -->
<g id="edge3" class="edge">
<title>3&#45;&gt;2</title>
<path fill="none" stroke="grey" stroke-width="2" d="M266.5,-215.7C266.5,-207.98 266.5,-198.71 266.5,-190.11"/>
<polygon fill="grey" stroke="grey" stroke-width="2" points="270,-190.1 266.5,-180.1 263,-190.1 270,-190.1"/>
</g>
<!-- 4 -->
<g id="node5" class="node">
<title>4</title>
<path fill="none" stroke="#569ad8" stroke-width="2" d="M296.5,-324C296.5,-324 236.5,-324 236.5,-324 230.5,-324 224.5,-318 224.5,-312 224.5,-312 224.5,-300 224.5,-300 224.5,-294 230.5,-288 236.5,-288 236.5,-288 296.5,-288 296.5,-288 302.5,-288 308.5,-294 308.5,-300 308.5,-300 308.5,-312 308.5,-312 308.5,-318 302.5,-324 296.5,-324"/>
<text text-anchor="middle" x="266.5" y="-303.5" font-family="sans" font-size="10.00">second_mitos</text>
</g>
<!-- 4&#45;&gt;3 -->
<g id="edge4" class="edge">
<title>4&#45;&gt;3</title>
<path fill="none" stroke="grey" stroke-width="2" d="M266.5,-287.7C266.5,-279.98 266.5,-270.71 266.5,-262.11"/>
<polygon fill="grey" stroke="grey" stroke-width="2" points="270,-262.1 266.5,-252.1 263,-262.1 270,-262.1"/>
</g>
<!-- 5 -->
<g id="node6" class="node">
<title>5</title>
<path fill="none" stroke="#bed856" stroke-width="2" d="M314.5,-396C314.5,-396 218.5,-396 218.5,-396 212.5,-396 206.5,-390 206.5,-384 206.5,-384 206.5,-372 206.5,-372 206.5,-366 212.5,-360 218.5,-360 218.5,-360 314.5,-360 314.5,-360 320.5,-360 326.5,-366 326.5,-372 326.5,-372 326.5,-384 326.5,-384 326.5,-390 320.5,-396 314.5,-396"/>
<text text-anchor="middle" x="266.5" y="-375.5" font-family="sans" font-size="10.00">reverse_complement</text>
</g>
<!-- 5&#45;&gt;4 -->
<g id="edge5" class="edge">
<title>5&#45;&gt;4</title>
<path fill="none" stroke="grey" stroke-width="2" d="M266.5,-359.7C266.5,-351.98 266.5,-342.71 266.5,-334.11"/>
<polygon fill="grey" stroke="grey" stroke-width="2" points="270,-334.1 266.5,-324.1 263,-334.1 270,-334.1"/>
</g>
<!-- 6 -->
<g id="node7" class="node">
<title>6</title>
<path fill="none" stroke="#56d892" stroke-width="2" d="M254.5,-468C254.5,-468 224.5,-468 224.5,-468 218.5,-468 212.5,-462 212.5,-456 212.5,-456 212.5,-444 212.5,-444 212.5,-438 218.5,-432 224.5,-432 224.5,-432 254.5,-432 254.5,-432 260.5,-432 266.5,-438 266.5,-444 266.5,-444 266.5,-456 266.5,-456 266.5,-462 260.5,-468 254.5,-468"/>
<text text-anchor="middle" x="239.5" y="-447.5" font-family="sans" font-size="10.00">roll</text>
</g>
<!-- 6&#45;&gt;5 -->
<g id="edge7" class="edge">
<title>6&#45;&gt;5</title>
<path fill="none" stroke="grey" stroke-width="2" d="M246.17,-431.7C249.21,-423.81 252.88,-414.3 256.26,-405.55"/>
<polygon fill="grey" stroke="grey" stroke-width="2" points="259.57,-406.69 259.9,-396.1 253.04,-404.17 259.57,-406.69"/>
</g>
<!-- 7 -->
<g id="node8" class="node">
<title>7</title>
<path fill="none" stroke="#d89c56" stroke-width="2" d="M303.5,-540C303.5,-540 229.5,-540 229.5,-540 223.5,-540 217.5,-534 217.5,-528 217.5,-528 217.5,-516 217.5,-516 217.5,-510 223.5,-504 229.5,-504 229.5,-504 303.5,-504 303.5,-504 309.5,-504 315.5,-510 315.5,-516 315.5,-516 315.5,-528 315.5,-528 315.5,-534 309.5,-540 303.5,-540"/>
<text text-anchor="middle" x="266.5" y="-519.5" font-family="sans" font-size="10.00">annotation_stats</text>
</g>
<!-- 7&#45;&gt;5 -->
<g id="edge6" class="edge">
<title>7&#45;&gt;5</title>
<path fill="none" stroke="grey" stroke-width="2" d="M270.15,-503.91C272.18,-493.57 274.48,-480.09 275.5,-468 276.84,-452.06 276.84,-447.94 275.5,-432 274.78,-423.5 273.43,-414.31 271.99,-406.01"/>
<polygon fill="grey" stroke="grey" stroke-width="2" points="275.41,-405.29 270.15,-396.09 268.53,-406.56 275.41,-405.29"/>
</g>
<!-- 7&#45;&gt;6 -->
<g id="edge8" class="edge">
<title>7&#45;&gt;6</title>
<path fill="none" stroke="grey" stroke-width="2" d="M259.83,-503.7C256.79,-495.81 253.12,-486.3 249.74,-477.55"/>
<polygon fill="grey" stroke="grey" stroke-width="2" points="252.96,-476.17 246.1,-468.1 246.43,-478.69 252.96,-476.17"/>
</g>
<!-- 8 -->
<g id="node9" class="node">
<title>8</title>
<path fill="none" stroke="#61d856" stroke-width="2" d="M281.5,-612C281.5,-612 251.5,-612 251.5,-612 245.5,-612 239.5,-606 239.5,-600 239.5,-600 239.5,-588 239.5,-588 239.5,-582 245.5,-576 251.5,-576 251.5,-576 281.5,-576 281.5,-576 287.5,-576 293.5,-582 293.5,-588 293.5,-588 293.5,-600 293.5,-600 293.5,-606 287.5,-612 281.5,-612"/>
<text text-anchor="middle" x="266.5" y="-591.5" font-family="sans" font-size="10.00">mitos</text>
</g>
<!-- 8&#45;&gt;7 -->
<g id="edge9" class="edge">
<title>8&#45;&gt;7</title>
<path fill="none" stroke="grey" stroke-width="2" d="M266.5,-575.7C266.5,-567.98 266.5,-558.71 266.5,-550.11"/>
<polygon fill="grey" stroke="grey" stroke-width="2" points="270,-550.1 266.5,-540.1 263,-550.1 270,-550.1"/>
</g>
<!-- 9 -->
<g id="node10" class="node">
<title>9</title>
<path fill="none" stroke="#8fd856" stroke-width="2" d="M319.5,-684C319.5,-684 289.5,-684 289.5,-684 283.5,-684 277.5,-678 277.5,-672 277.5,-672 277.5,-660 277.5,-660 277.5,-654 283.5,-648 289.5,-648 289.5,-648 319.5,-648 319.5,-648 325.5,-648 331.5,-654 331.5,-660 331.5,-660 331.5,-672 331.5,-672 331.5,-678 325.5,-684 319.5,-684"/>
<text text-anchor="middle" x="304.5" y="-663.5" font-family="sans" font-size="10.00">norgal</text>
</g>
<!-- 9&#45;&gt;8 -->
<g id="edge14" class="edge">
<title>9&#45;&gt;8</title>
<path fill="none" stroke="grey" stroke-width="2" d="M295.11,-647.7C290.74,-639.64 285.44,-629.89 280.6,-620.98"/>
<polygon fill="grey" stroke="grey" stroke-width="2" points="283.63,-619.22 275.79,-612.1 277.48,-622.56 283.63,-619.22"/>
</g>
<!-- 10 -->
<g id="node11" class="node">
<title>10</title>
<path fill="none" stroke="#5682d8" stroke-width="2" d="M169.5,-684C169.5,-684 113.5,-684 113.5,-684 107.5,-684 101.5,-678 101.5,-672 101.5,-672 101.5,-660 101.5,-660 101.5,-654 107.5,-648 113.5,-648 113.5,-648 169.5,-648 169.5,-648 175.5,-648 181.5,-654 181.5,-660 181.5,-660 181.5,-672 181.5,-672 181.5,-678 175.5,-684 169.5,-684"/>
<text text-anchor="middle" x="141.5" y="-663.5" font-family="sans" font-size="10.00">mitos_ref_db</text>
</g>
<!-- 10&#45;&gt;8 -->
<g id="edge12" class="edge">
<title>10&#45;&gt;8</title>
<path fill="none" stroke="grey" stroke-width="2" d="M172.08,-647.88C189.72,-638 212,-625.52 230.48,-615.17"/>
<polygon fill="grey" stroke="grey" stroke-width="2" points="232.2,-618.22 239.22,-610.28 228.78,-612.11 232.2,-618.22"/>
</g>
<!-- 11 -->
<g id="node12" class="node">
<title>11</title>
<path fill="none" stroke="#d85656" stroke-width="2" d="M71,-684C71,-684 12,-684 12,-684 6,-684 0,-678 0,-672 0,-672 0,-660 0,-660 0,-654 6,-648 12,-648 12,-648 71,-648 71,-648 77,-648 83,-654 83,-660 83,-660 83,-672 83,-672 83,-678 77,-684 71,-684"/>
<text text-anchor="middle" x="41.5" y="-663.5" font-family="sans" font-size="10.00">get_organelle</text>
</g>
<!-- 11&#45;&gt;8 -->
<g id="edge10" class="edge">
<title>11&#45;&gt;8</title>
<path fill="none" stroke="grey" stroke-width="2" d="M83.22,-651C86.36,-649.97 89.48,-648.96 92.5,-648 139.6,-632.98 194.16,-616.51 229.45,-605.98"/>
<polygon fill="grey" stroke="grey" stroke-width="2" points="230.72,-609.25 239.31,-603.04 228.72,-602.54 230.72,-609.25"/>
</g>
<!-- 12 -->
<g id="node13" class="node">
<title>12</title>
<path fill="none" stroke="#56d87b" stroke-width="2" d="M364,-756C364,-756 331,-756 331,-756 325,-756 319,-750 319,-744 319,-744 319,-732 319,-732 319,-726 325,-720 331,-720 331,-720 364,-720 364,-720 370,-720 376,-726 376,-732 376,-732 376,-744 376,-744 376,-750 370,-756 364,-756"/>
<text text-anchor="middle" x="347.5" y="-735.5" font-family="sans" font-size="10.00">mitoflex</text>
</g>
<!-- 12&#45;&gt;8 -->
<g id="edge11" class="edge">
<title>12&#45;&gt;8</title>
<path fill="none" stroke="grey" stroke-width="2" d="M350.24,-719.7C352.35,-700.81 353.07,-670.27 340.5,-648 331.88,-632.73 316.83,-620.74 302.54,-612.05"/>
<polygon fill="grey" stroke="grey" stroke-width="2" points="304.23,-608.99 293.81,-607.07 300.76,-615.07 304.23,-608.99"/>
</g>
<!-- 13 -->
<g id="node14" class="node">
<title>13</title>
<path fill="none" stroke="#d8b456" stroke-width="2" d="M458.5,-756C458.5,-756 406.5,-756 406.5,-756 400.5,-756 394.5,-750 394.5,-744 394.5,-744 394.5,-732 394.5,-732 394.5,-726 400.5,-720 406.5,-720 406.5,-720 458.5,-720 458.5,-720 464.5,-720 470.5,-726 470.5,-732 470.5,-732 470.5,-744 470.5,-744 470.5,-750 464.5,-756 458.5,-756"/>
<text text-anchor="middle" x="432.5" y="-735.5" font-family="sans" font-size="10.00">NOVOplasty</text>
</g>
<!-- 13&#45;&gt;8 -->
<g id="edge13" class="edge">
<title>13&#45;&gt;8</title>
<path fill="none" stroke="grey" stroke-width="2" d="M421.18,-719.67C408.02,-700.46 384.85,-669.39 359.5,-648 342.45,-633.61 320.93,-621.06 302.89,-611.79"/>
<polygon fill="grey" stroke="grey" stroke-width="2" points="304.33,-608.59 293.82,-607.25 301.19,-614.85 304.33,-608.59"/>
</g>
<!-- 14 -->
<g id="node15" class="node">
<title>14</title>
<path fill="none" stroke="#566bd8" stroke-width="2" d="M247.5,-684C247.5,-684 211.5,-684 211.5,-684 205.5,-684 199.5,-678 199.5,-672 199.5,-672 199.5,-660 199.5,-660 199.5,-654 205.5,-648 211.5,-648 211.5,-648 247.5,-648 247.5,-648 253.5,-648 259.5,-654 259.5,-660 259.5,-660 259.5,-672 259.5,-672 259.5,-678 253.5,-684 247.5,-684"/>
<text text-anchor="middle" x="229.5" y="-663.5" font-family="sans" font-size="10.00">MITObim</text>
</g>
<!-- 14&#45;&gt;8 -->
<g id="edge15" class="edge">
<title>14&#45;&gt;8</title>
<path fill="none" stroke="grey" stroke-width="2" d="M238.65,-647.7C242.9,-639.64 248.06,-629.89 252.77,-620.98"/>
<polygon fill="grey" stroke="grey" stroke-width="2" points="255.88,-622.58 257.46,-612.1 249.69,-619.31 255.88,-622.58"/>
</g>
<!-- 15 -->
<g id="node16" class="node">
<title>15</title>
<path fill="none" stroke="#56b1d8" stroke-width="2" d="M263.5,-828C263.5,-828 217.5,-828 217.5,-828 211.5,-828 205.5,-822 205.5,-816 205.5,-816 205.5,-804 205.5,-804 205.5,-798 211.5,-792 217.5,-792 217.5,-792 263.5,-792 263.5,-792 269.5,-792 275.5,-798 275.5,-804 275.5,-804 275.5,-816 275.5,-816 275.5,-822 269.5,-828 263.5,-828"/>
<text text-anchor="middle" x="240.5" y="-807.5" font-family="sans" font-size="10.00">subsample</text>
</g>
<!-- 15&#45;&gt;9 -->
<g id="edge16" class="edge">
<title>15&#45;&gt;9</title>
<path fill="none" stroke="grey" stroke-width="2" d="M251.62,-791.75C257.91,-781.58 265.66,-768.33 271.5,-756 281.15,-735.61 289.92,-711.58 295.99,-693.63"/>
<polygon fill="grey" stroke="grey" stroke-width="2" points="299.32,-694.68 299.15,-684.09 292.68,-692.48 299.32,-694.68"/>
</g>
<!-- 15&#45;&gt;11 -->
<g id="edge17" class="edge">
<title>15&#45;&gt;11</title>
<path fill="none" stroke="grey" stroke-width="2" d="M216.5,-791.87C180.86,-766.44 113.89,-718.65 73.93,-690.14"/>
<polygon fill="grey" stroke="grey" stroke-width="2" points="75.76,-687.15 65.59,-684.19 71.7,-692.85 75.76,-687.15"/>
</g>
<!-- 15&#45;&gt;12 -->
<g id="edge19" class="edge">
<title>15&#45;&gt;12</title>
<path fill="none" stroke="grey" stroke-width="2" d="M266.68,-791.88C280.54,-782.81 297.74,-771.55 312.71,-761.76"/>
<polygon fill="grey" stroke="grey" stroke-width="2" points="314.77,-764.59 321.22,-756.19 310.94,-758.74 314.77,-764.59"/>
</g>
<!-- 15&#45;&gt;13 -->
<g id="edge20" class="edge">
<title>15&#45;&gt;13</title>
<path fill="none" stroke="grey" stroke-width="2" d="M275.85,-795.58C279.11,-794.37 282.37,-793.16 285.5,-792 327.05,-776.67 339.53,-772.54 384.78,-756.25"/>
<polygon fill="grey" stroke="grey" stroke-width="2" points="386.06,-759.51 394.28,-752.83 383.69,-752.93 386.06,-759.51"/>
</g>
<!-- 18 -->
<g id="node19" class="node">
<title>18</title>
<path fill="none" stroke="#d86e56" stroke-width="2" d="M250.5,-756C250.5,-756 208.5,-756 208.5,-756 202.5,-756 196.5,-750 196.5,-744 196.5,-744 196.5,-732 196.5,-732 196.5,-726 202.5,-720 208.5,-720 208.5,-720 250.5,-720 250.5,-720 256.5,-720 262.5,-726 262.5,-732 262.5,-732 262.5,-744 262.5,-744 262.5,-750 256.5,-756 250.5,-756"/>
<text text-anchor="middle" x="229.5" y="-735.5" font-family="sans" font-size="10.00">interleave</text>
</g>
<!-- 15&#45;&gt;18 -->
<g id="edge24" class="edge">
<title>15&#45;&gt;18</title>
<path fill="none" stroke="grey" stroke-width="2" d="M237.78,-791.7C236.57,-783.98 235.11,-774.71 233.76,-766.11"/>
<polygon fill="grey" stroke="grey" stroke-width="2" points="237.2,-765.44 232.19,-756.1 230.28,-766.53 237.2,-765.44"/>
</g>
<!-- 16 -->
<g id="node17" class="node">
<title>16</title>
<path fill="none" stroke="#56d8b9" stroke-width="2" d="M389,-828C389,-828 306,-828 306,-828 300,-828 294,-822 294,-816 294,-816 294,-804 294,-804 294,-798 300,-792 306,-792 306,-792 389,-792 389,-792 395,-792 401,-798 401,-804 401,-804 401,-816 401,-816 401,-822 395,-828 389,-828"/>
<text text-anchor="middle" x="347.5" y="-807.5" font-family="sans" font-size="10.00">setup_mitoflex_db</text>
</g>
<!-- 16&#45;&gt;12 -->
<g id="edge18" class="edge">
<title>16&#45;&gt;12</title>
<path fill="none" stroke="grey" stroke-width="2" d="M347.5,-791.7C347.5,-783.98 347.5,-774.71 347.5,-766.11"/>
<polygon fill="grey" stroke="grey" stroke-width="2" points="351,-766.1 347.5,-756.1 344,-766.1 351,-766.1"/>
</g>
<!-- 17 -->
<g id="node18" class="node">
<title>17</title>
<path fill="none" stroke="#56d8a2" stroke-width="2" d="M482,-828C482,-828 431,-828 431,-828 425,-828 419,-822 419,-816 419,-816 419,-804 419,-804 419,-798 425,-792 431,-792 431,-792 482,-792 482,-792 488,-792 494,-798 494,-804 494,-804 494,-816 494,-816 494,-822 488,-828 482,-828"/>
<text text-anchor="middle" x="456.5" y="-807.5" font-family="sans" font-size="10.00">NOVOconfig</text>
</g>
<!-- 17&#45;&gt;13 -->
<g id="edge21" class="edge">
<title>17&#45;&gt;13</title>
<path fill="none" stroke="grey" stroke-width="2" d="M450.57,-791.7C447.89,-783.9 444.67,-774.51 441.7,-765.83"/>
<polygon fill="grey" stroke="grey" stroke-width="2" points="444.92,-764.43 438.36,-756.1 438.3,-766.7 444.92,-764.43"/>
</g>
<!-- 18&#45;&gt;14 -->
<g id="edge22" class="edge">
<title>18&#45;&gt;14</title>
<path fill="none" stroke="grey" stroke-width="2" d="M229.5,-719.7C229.5,-711.98 229.5,-702.71 229.5,-694.11"/>
<polygon fill="grey" stroke="grey" stroke-width="2" points="233,-694.1 229.5,-684.1 226,-694.1 233,-694.1"/>
</g>
<!-- 19 -->
<g id="node20" class="node">
<title>19</title>
<path fill="none" stroke="#56d863" stroke-width="2" d="M268.5,-900C268.5,-900 212.5,-900 212.5,-900 206.5,-900 200.5,-894 200.5,-888 200.5,-888 200.5,-876 200.5,-876 200.5,-870 206.5,-864 212.5,-864 212.5,-864 268.5,-864 268.5,-864 274.5,-864 280.5,-870 280.5,-876 280.5,-876 280.5,-888 280.5,-888 280.5,-894 274.5,-900 268.5,-900"/>
<text text-anchor="middle" x="240.5" y="-879.5" font-family="sans" font-size="10.00">trimmomatic</text>
</g>
<!-- 19&#45;&gt;15 -->
<g id="edge23" class="edge">
<title>19&#45;&gt;15</title>
<path fill="none" stroke="grey" stroke-width="2" d="M240.5,-863.7C240.5,-855.98 240.5,-846.71 240.5,-838.11"/>
<polygon fill="grey" stroke="grey" stroke-width="2" points="244,-838.1 240.5,-828.1 237,-838.1 244,-838.1"/>
</g>
<!-- 20 -->
<g id="node21" class="node">
<title>20</title>
<path fill="none" stroke="#56d8d0" stroke-width="2" d="M263,-972C263,-972 218,-972 218,-972 212,-972 206,-966 206,-960 206,-960 206,-948 206,-948 206,-942 212,-936 218,-936 218,-936 263,-936 263,-936 269,-936 275,-942 275,-948 275,-948 275,-960 275,-960 275,-966 269,-972 263,-972"/>
<text text-anchor="middle" x="240.5" y="-951.5" font-family="sans" font-size="10.00">fastqdump</text>
</g>
<!-- 20&#45;&gt;19 -->
<g id="edge25" class="edge">
<title>20&#45;&gt;19</title>
<path fill="none" stroke="grey" stroke-width="2" d="M240.5,-935.7C240.5,-927.98 240.5,-918.71 240.5,-910.11"/>
<polygon fill="grey" stroke="grey" stroke-width="2" points="244,-910.1 240.5,-900.1 237,-910.1 244,-910.1"/>
</g>
</g>
</svg>
