<?xml version="1.0" encoding="UTF-8" standalone="no"?>
<!DOCTYPE svg PUBLIC "-//W3C//DTD SVG 1.1//EN"
 "http://www.w3.org/Graphics/SVG/1.1/DTD/svg11.dtd">
<!-- Generated by graphviz version 2.42.3 (20191010.1750)
 -->
<!-- Title: snakemake_dag Pages: 1 -->
<svg width="502pt" height="1124pt"
 viewBox="0.00 0.00 502.00 1124.00" xmlns="http://www.w3.org/2000/svg" xmlns:xlink="http://www.w3.org/1999/xlink">
<g id="graph0" class="graph" transform="scale(1 1) rotate(0) translate(4 1120)">
<title>snakemake_dag</title>
<polygon fill="white" stroke="transparent" points="-4,4 -4,-1120 498,-1120 498,4 -4,4"/>
<!-- 0 -->
<g id="node1" class="node">
<title>0</title>
<path fill="none" stroke="#d85656" stroke-width="2" d="M281.5,-36C281.5,-36 251.5,-36 251.5,-36 245.5,-36 239.5,-30 239.5,-24 239.5,-24 239.5,-12 239.5,-12 239.5,-6 245.5,0 251.5,0 251.5,0 281.5,0 281.5,0 287.5,0 293.5,-6 293.5,-12 293.5,-12 293.5,-24 293.5,-24 293.5,-30 287.5,-36 281.5,-36"/>
<text text-anchor="middle" x="266.5" y="-15.5" font-family="sans" font-size="10.00">all</text>
</g>
<!-- 1 -->
<g id="node2" class="node">
<title>1</title>
<path fill="none" stroke="#56d8a9" stroke-width="2" d="M281.5,-108C281.5,-108 251.5,-108 251.5,-108 245.5,-108 239.5,-102 239.5,-96 239.5,-96 239.5,-84 239.5,-84 239.5,-78 245.5,-72 251.5,-72 251.5,-72 281.5,-72 281.5,-72 287.5,-72 293.5,-78 293.5,-84 293.5,-84 293.5,-96 293.5,-96 293.5,-102 287.5,-108 281.5,-108"/>
<text text-anchor="middle" x="266.5" y="-87.5" font-family="sans" font-size="10.00">report</text>
</g>
<!-- 1&#45;&gt;0 -->
<g id="edge1" class="edge">
<title>1&#45;&gt;0</title>
<path fill="none" stroke="grey" stroke-width="2" d="M266.5,-71.7C266.5,-63.98 266.5,-54.71 266.5,-46.11"/>
<polygon fill="grey" stroke="grey" stroke-width="2" points="270,-46.1 266.5,-36.1 263,-46.1 270,-46.1"/>
</g>
<!-- 2 -->
<g id="node3" class="node">
<title>2</title>
<path fill="none" stroke="#56d8d8" stroke-width="2" d="M243.5,-396C243.5,-396 183.5,-396 183.5,-396 177.5,-396 171.5,-390 171.5,-384 171.5,-384 171.5,-372 171.5,-372 171.5,-366 177.5,-360 183.5,-360 183.5,-360 243.5,-360 243.5,-360 249.5,-360 255.5,-366 255.5,-372 255.5,-372 255.5,-384 255.5,-384 255.5,-390 249.5,-396 243.5,-396"/>
<text text-anchor="middle" x="213.5" y="-375.5" font-family="sans" font-size="10.00">second_mitos</text>
</g>
<!-- 2&#45;&gt;1 -->
<g id="edge4" class="edge">
<title>2&#45;&gt;1</title>
<path fill="none" stroke="grey" stroke-width="2" d="M227.49,-359.97C234.78,-350.09 243.09,-337.05 247.5,-324 271.57,-252.78 270.75,-162.64 268.46,-118.25"/>
<polygon fill="grey" stroke="grey" stroke-width="2" points="271.96,-118.01 267.88,-108.24 264.97,-118.42 271.96,-118.01"/>
</g>
<!-- 9 -->
<g id="node10" class="node">
<title>9</title>
<path fill="none" stroke="#d86e56" stroke-width="2" d="M226.5,-324C226.5,-324 160.5,-324 160.5,-324 154.5,-324 148.5,-318 148.5,-312 148.5,-312 148.5,-300 148.5,-300 148.5,-294 154.5,-288 160.5,-288 160.5,-288 226.5,-288 226.5,-288 232.5,-288 238.5,-294 238.5,-300 238.5,-300 238.5,-312 238.5,-312 238.5,-318 232.5,-324 226.5,-324"/>
<text text-anchor="middle" x="193.5" y="-303.5" font-family="sans" font-size="10.00">gene_positions</text>
</g>
<!-- 2&#45;&gt;9 -->
<g id="edge18" class="edge">
<title>2&#45;&gt;9</title>
<path fill="none" stroke="grey" stroke-width="2" d="M208.56,-359.7C206.33,-351.9 203.65,-342.51 201.17,-333.83"/>
<polygon fill="grey" stroke="grey" stroke-width="2" points="204.5,-332.76 198.39,-324.1 197.77,-334.68 204.5,-332.76"/>
</g>
<!-- 3 -->
<g id="node4" class="node">
<title>3</title>
<path fill="none" stroke="#80d856" stroke-width="2" d="M224.5,-180C224.5,-180 194.5,-180 194.5,-180 188.5,-180 182.5,-174 182.5,-168 182.5,-168 182.5,-156 182.5,-156 182.5,-150 188.5,-144 194.5,-144 194.5,-144 224.5,-144 224.5,-144 230.5,-144 236.5,-150 236.5,-156 236.5,-156 236.5,-168 236.5,-168 236.5,-174 230.5,-180 224.5,-180"/>
<text text-anchor="middle" x="209.5" y="-159.5" font-family="sans" font-size="10.00">CCT</text>
</g>
<!-- 3&#45;&gt;1 -->
<g id="edge3" class="edge">
<title>3&#45;&gt;1</title>
<path fill="none" stroke="grey" stroke-width="2" d="M223.59,-143.7C230.42,-135.3 238.76,-125.07 246.26,-115.86"/>
<polygon fill="grey" stroke="grey" stroke-width="2" points="248.97,-118.07 252.57,-108.1 243.54,-113.65 248.97,-118.07"/>
</g>
<!-- 4 -->
<g id="node5" class="node">
<title>4</title>
<path fill="none" stroke="#56d89a" stroke-width="2" d="M303.5,-684C303.5,-684 229.5,-684 229.5,-684 223.5,-684 217.5,-678 217.5,-672 217.5,-672 217.5,-660 217.5,-660 217.5,-654 223.5,-648 229.5,-648 229.5,-648 303.5,-648 303.5,-648 309.5,-648 315.5,-654 315.5,-660 315.5,-660 315.5,-672 315.5,-672 315.5,-678 309.5,-684 303.5,-684"/>
<text text-anchor="middle" x="266.5" y="-663.5" font-family="sans" font-size="10.00">annotation_stats</text>
</g>
<!-- 4&#45;&gt;1 -->
<g id="edge2" class="edge">
<title>4&#45;&gt;1</title>
<path fill="none" stroke="grey" stroke-width="2" d="M274.19,-647.91C285.29,-621.62 304.5,-569.45 304.5,-523 304.5,-523 304.5,-523 304.5,-233 304.5,-191.63 289.27,-145.72 278.09,-117.61"/>
<polygon fill="grey" stroke="grey" stroke-width="2" points="281.22,-116.02 274.19,-108.09 274.74,-118.67 281.22,-116.02"/>
</g>
<!-- 8 -->
<g id="node9" class="node">
<title>8</title>
<path fill="none" stroke="#569ad8" stroke-width="2" d="M261.5,-540C261.5,-540 165.5,-540 165.5,-540 159.5,-540 153.5,-534 153.5,-528 153.5,-528 153.5,-516 153.5,-516 153.5,-510 159.5,-504 165.5,-504 165.5,-504 261.5,-504 261.5,-504 267.5,-504 273.5,-510 273.5,-516 273.5,-516 273.5,-528 273.5,-528 273.5,-534 267.5,-540 261.5,-540"/>
<text text-anchor="middle" x="213.5" y="-519.5" font-family="sans" font-size="10.00">reverse_complement</text>
</g>
<!-- 4&#45;&gt;8 -->
<g id="edge16" class="edge">
<title>4&#45;&gt;8</title>
<path fill="none" stroke="grey" stroke-width="2" d="M264.68,-647.73C262.32,-629.39 257.3,-599.82 247.5,-576 243.61,-566.55 238.02,-556.93 232.5,-548.52"/>
<polygon fill="grey" stroke="grey" stroke-width="2" points="235.38,-546.54 226.84,-540.27 229.61,-550.49 235.38,-546.54"/>
</g>
<!-- 16 -->
<g id="node17" class="node">
<title>16</title>
<path fill="none" stroke="#d6d856" stroke-width="2" d="M226.5,-612C226.5,-612 196.5,-612 196.5,-612 190.5,-612 184.5,-606 184.5,-600 184.5,-600 184.5,-588 184.5,-588 184.5,-582 190.5,-576 196.5,-576 196.5,-576 226.5,-576 226.5,-576 232.5,-576 238.5,-582 238.5,-588 238.5,-588 238.5,-600 238.5,-600 238.5,-606 232.5,-612 226.5,-612"/>
<text text-anchor="middle" x="211.5" y="-591.5" font-family="sans" font-size="10.00">roll</text>
</g>
<!-- 4&#45;&gt;16 -->
<g id="edge26" class="edge">
<title>4&#45;&gt;16</title>
<path fill="none" stroke="grey" stroke-width="2" d="M252.9,-647.7C246.38,-639.39 238.43,-629.28 231.25,-620.14"/>
<polygon fill="grey" stroke="grey" stroke-width="2" points="233.87,-617.81 224.94,-612.1 228.37,-622.13 233.87,-617.81"/>
</g>
<!-- 5 -->
<g id="node6" class="node">
<title>5</title>
<path fill="none" stroke="#56a9d8" stroke-width="2" d="M228.5,-468C228.5,-468 198.5,-468 198.5,-468 192.5,-468 186.5,-462 186.5,-456 186.5,-456 186.5,-444 186.5,-444 186.5,-438 192.5,-432 198.5,-432 198.5,-432 228.5,-432 228.5,-432 234.5,-432 240.5,-438 240.5,-444 240.5,-444 240.5,-456 240.5,-456 240.5,-462 234.5,-468 228.5,-468"/>
<text text-anchor="middle" x="213.5" y="-447.5" font-family="sans" font-size="10.00">align</text>
</g>
<!-- 5&#45;&gt;2 -->
<g id="edge5" class="edge">
<title>5&#45;&gt;2</title>
<path fill="none" stroke="grey" stroke-width="2" d="M213.5,-431.7C213.5,-423.98 213.5,-414.71 213.5,-406.11"/>
<polygon fill="grey" stroke="grey" stroke-width="2" points="217,-406.1 213.5,-396.1 210,-406.1 217,-406.1"/>
</g>
<!-- 6 -->
<g id="node7" class="node">
<title>6</title>
<path fill="none" stroke="#d8ac56" stroke-width="2" d="M219.5,-252C219.5,-252 181.5,-252 181.5,-252 175.5,-252 169.5,-246 169.5,-240 169.5,-240 169.5,-228 169.5,-228 169.5,-222 175.5,-216 181.5,-216 181.5,-216 219.5,-216 219.5,-216 225.5,-216 231.5,-222 231.5,-228 231.5,-228 231.5,-240 231.5,-240 231.5,-246 225.5,-252 219.5,-252"/>
<text text-anchor="middle" x="200.5" y="-231.5" font-family="sans" font-size="10.00">gbk_prep</text>
</g>
<!-- 6&#45;&gt;3 -->
<g id="edge6" class="edge">
<title>6&#45;&gt;3</title>
<path fill="none" stroke="grey" stroke-width="2" d="M202.72,-215.7C203.72,-207.98 204.91,-198.71 206.01,-190.11"/>
<polygon fill="grey" stroke="grey" stroke-width="2" points="209.5,-190.47 207.3,-180.1 202.55,-189.58 209.5,-190.47"/>
</g>
<!-- 7 -->
<g id="node8" class="node">
<title>7</title>
<path fill="none" stroke="#56c1d8" stroke-width="2" d="M281.5,-756C281.5,-756 251.5,-756 251.5,-756 245.5,-756 239.5,-750 239.5,-744 239.5,-744 239.5,-732 239.5,-732 239.5,-726 245.5,-720 251.5,-720 251.5,-720 281.5,-720 281.5,-720 287.5,-720 293.5,-726 293.5,-732 293.5,-732 293.5,-744 293.5,-744 293.5,-750 287.5,-756 281.5,-756"/>
<text text-anchor="middle" x="266.5" y="-735.5" font-family="sans" font-size="10.00">mitos</text>
</g>
<!-- 7&#45;&gt;4 -->
<g id="edge7" class="edge">
<title>7&#45;&gt;4</title>
<path fill="none" stroke="grey" stroke-width="2" d="M266.5,-719.7C266.5,-711.98 266.5,-702.71 266.5,-694.11"/>
<polygon fill="grey" stroke="grey" stroke-width="2" points="270,-694.1 266.5,-684.1 263,-694.1 270,-694.1"/>
</g>
<!-- 8&#45;&gt;5 -->
<g id="edge8" class="edge">
<title>8&#45;&gt;5</title>
<path fill="none" stroke="grey" stroke-width="2" d="M213.5,-503.7C213.5,-495.98 213.5,-486.71 213.5,-478.11"/>
<polygon fill="grey" stroke="grey" stroke-width="2" points="217,-478.1 213.5,-468.1 210,-478.1 217,-478.1"/>
</g>
<!-- 9&#45;&gt;6 -->
<g id="edge9" class="edge">
<title>9&#45;&gt;6</title>
<path fill="none" stroke="grey" stroke-width="2" d="M195.23,-287.7C196,-279.98 196.93,-270.71 197.79,-262.11"/>
<polygon fill="grey" stroke="grey" stroke-width="2" points="201.28,-262.4 198.79,-252.1 194.31,-261.71 201.28,-262.4"/>
</g>
<!-- 10 -->
<g id="node11" class="node">
<title>10</title>
<path fill="none" stroke="#d88556" stroke-width="2" d="M319.5,-828C319.5,-828 289.5,-828 289.5,-828 283.5,-828 277.5,-822 277.5,-816 277.5,-816 277.5,-804 277.5,-804 277.5,-798 283.5,-792 289.5,-792 289.5,-792 319.5,-792 319.5,-792 325.5,-792 331.5,-798 331.5,-804 331.5,-804 331.5,-816 331.5,-816 331.5,-822 325.5,-828 319.5,-828"/>
<text text-anchor="middle" x="304.5" y="-807.5" font-family="sans" font-size="10.00">norgal</text>
</g>
<!-- 10&#45;&gt;7 -->
<g id="edge11" class="edge">
<title>10&#45;&gt;7</title>
<path fill="none" stroke="grey" stroke-width="2" d="M295.11,-791.7C290.74,-783.64 285.44,-773.89 280.6,-764.98"/>
<polygon fill="grey" stroke="grey" stroke-width="2" points="283.63,-763.22 275.79,-756.1 277.48,-766.56 283.63,-763.22"/>
</g>
<!-- 11 -->
<g id="node12" class="node">
<title>11</title>
<path fill="none" stroke="#68d856" stroke-width="2" d="M169.5,-828C169.5,-828 113.5,-828 113.5,-828 107.5,-828 101.5,-822 101.5,-816 101.5,-816 101.5,-804 101.5,-804 101.5,-798 107.5,-792 113.5,-792 113.5,-792 169.5,-792 169.5,-792 175.5,-792 181.5,-798 181.5,-804 181.5,-804 181.5,-816 181.5,-816 181.5,-822 175.5,-828 169.5,-828"/>
<text text-anchor="middle" x="141.5" y="-807.5" font-family="sans" font-size="10.00">mitos_ref_db</text>
</g>
<!-- 11&#45;&gt;7 -->
<g id="edge12" class="edge">
<title>11&#45;&gt;7</title>
<path fill="none" stroke="grey" stroke-width="2" d="M172.08,-791.88C189.72,-782 212,-769.52 230.48,-759.17"/>
<polygon fill="grey" stroke="grey" stroke-width="2" points="232.2,-762.22 239.22,-754.28 228.78,-756.11 232.2,-762.22"/>
</g>
<!-- 12 -->
<g id="node13" class="node">
<title>12</title>
<path fill="none" stroke="#c6d856" stroke-width="2" d="M71,-828C71,-828 12,-828 12,-828 6,-828 0,-822 0,-816 0,-816 0,-804 0,-804 0,-798 6,-792 12,-792 12,-792 71,-792 71,-792 77,-792 83,-798 83,-804 83,-804 83,-816 83,-816 83,-822 77,-828 71,-828"/>
<text text-anchor="middle" x="41.5" y="-807.5" font-family="sans" font-size="10.00">get_organelle</text>
</g>
<!-- 12&#45;&gt;7 -->
<g id="edge10" class="edge">
<title>12&#45;&gt;7</title>
<path fill="none" stroke="grey" stroke-width="2" d="M83.22,-795C86.36,-793.97 89.48,-792.96 92.5,-792 139.6,-776.98 194.16,-760.51 229.45,-749.98"/>
<polygon fill="grey" stroke="grey" stroke-width="2" points="230.72,-753.25 239.31,-747.04 228.72,-746.54 230.72,-753.25"/>
</g>
<!-- 13 -->
<g id="node14" class="node">
<title>13</title>
<path fill="none" stroke="#59d856" stroke-width="2" d="M364,-900C364,-900 331,-900 331,-900 325,-900 319,-894 319,-888 319,-888 319,-876 319,-876 319,-870 325,-864 331,-864 331,-864 364,-864 364,-864 370,-864 376,-870 376,-876 376,-876 376,-888 376,-888 376,-894 370,-900 364,-900"/>
<text text-anchor="middle" x="347.5" y="-879.5" font-family="sans" font-size="10.00">mitoflex</text>
</g>
<!-- 13&#45;&gt;7 -->
<g id="edge15" class="edge">
<title>13&#45;&gt;7</title>
<path fill="none" stroke="grey" stroke-width="2" d="M350.24,-863.7C352.35,-844.81 353.07,-814.27 340.5,-792 331.88,-776.73 316.83,-764.74 302.54,-756.05"/>
<polygon fill="grey" stroke="grey" stroke-width="2" points="304.23,-752.99 293.81,-751.07 300.76,-759.07 304.23,-752.99"/>
</g>
<!-- 14 -->
<g id="node15" class="node">
<title>14</title>
<path fill="none" stroke="#56d8c1" stroke-width="2" d="M458.5,-900C458.5,-900 406.5,-900 406.5,-900 400.5,-900 394.5,-894 394.5,-888 394.5,-888 394.5,-876 394.5,-876 394.5,-870 400.5,-864 406.5,-864 406.5,-864 458.5,-864 458.5,-864 464.5,-864 470.5,-870 470.5,-876 470.5,-876 470.5,-888 470.5,-888 470.5,-894 464.5,-900 458.5,-900"/>
<text text-anchor="middle" x="432.5" y="-879.5" font-family="sans" font-size="10.00">NOVOplasty</text>
</g>
<!-- 14&#45;&gt;7 -->
<g id="edge14" class="edge">
<title>14&#45;&gt;7</title>
<path fill="none" stroke="grey" stroke-width="2" d="M421.18,-863.67C408.02,-844.46 384.85,-813.39 359.5,-792 342.45,-777.61 320.93,-765.06 302.89,-755.79"/>
<polygon fill="grey" stroke="grey" stroke-width="2" points="304.33,-752.59 293.82,-751.25 301.19,-758.85 304.33,-752.59"/>
</g>
<!-- 15 -->
<g id="node16" class="node">
<title>15</title>
<path fill="none" stroke="#566bd8" stroke-width="2" d="M247.5,-828C247.5,-828 211.5,-828 211.5,-828 205.5,-828 199.5,-822 199.5,-816 199.5,-816 199.5,-804 199.5,-804 199.5,-798 205.5,-792 211.5,-792 211.5,-792 247.5,-792 247.5,-792 253.5,-792 259.5,-798 259.5,-804 259.5,-804 259.5,-816 259.5,-816 259.5,-822 253.5,-828 247.5,-828"/>
<text text-anchor="middle" x="229.5" y="-807.5" font-family="sans" font-size="10.00">MITObim</text>
</g>
<!-- 15&#45;&gt;7 -->
<g id="edge13" class="edge">
<title>15&#45;&gt;7</title>
<path fill="none" stroke="grey" stroke-width="2" d="M238.65,-791.7C242.9,-783.64 248.06,-773.89 252.77,-764.98"/>
<polygon fill="grey" stroke="grey" stroke-width="2" points="255.88,-766.58 257.46,-756.1 249.69,-763.31 255.88,-766.58"/>
</g>
<!-- 16&#45;&gt;8 -->
<g id="edge17" class="edge">
<title>16&#45;&gt;8</title>
<path fill="none" stroke="grey" stroke-width="2" d="M211.99,-575.7C212.21,-567.98 212.48,-558.71 212.73,-550.11"/>
<polygon fill="grey" stroke="grey" stroke-width="2" points="216.22,-550.2 213.01,-540.1 209.23,-550 216.22,-550.2"/>
</g>
<!-- 17 -->
<g id="node18" class="node">
<title>17</title>
<path fill="none" stroke="#56d86b" stroke-width="2" d="M263.5,-972C263.5,-972 217.5,-972 217.5,-972 211.5,-972 205.5,-966 205.5,-960 205.5,-960 205.5,-948 205.5,-948 205.5,-942 211.5,-936 217.5,-936 217.5,-936 263.5,-936 263.5,-936 269.5,-936 275.5,-942 275.5,-948 275.5,-948 275.5,-960 275.5,-960 275.5,-966 269.5,-972 263.5,-972"/>
<text text-anchor="middle" x="240.5" y="-951.5" font-family="sans" font-size="10.00">subsample</text>
</g>
<!-- 17&#45;&gt;10 -->
<g id="edge19" class="edge">
<title>17&#45;&gt;10</title>
<path fill="none" stroke="grey" stroke-width="2" d="M251.62,-935.75C257.91,-925.58 265.66,-912.33 271.5,-900 281.15,-879.61 289.92,-855.58 295.99,-837.63"/>
<polygon fill="grey" stroke="grey" stroke-width="2" points="299.32,-838.68 299.15,-828.09 292.68,-836.48 299.32,-838.68"/>
</g>
<!-- 17&#45;&gt;12 -->
<g id="edge20" class="edge">
<title>17&#45;&gt;12</title>
<path fill="none" stroke="grey" stroke-width="2" d="M216.5,-935.87C180.86,-910.44 113.89,-862.65 73.93,-834.14"/>
<polygon fill="grey" stroke="grey" stroke-width="2" points="75.76,-831.15 65.59,-828.19 71.7,-836.85 75.76,-831.15"/>
</g>
<!-- 17&#45;&gt;13 -->
<g id="edge22" class="edge">
<title>17&#45;&gt;13</title>
<path fill="none" stroke="grey" stroke-width="2" d="M266.68,-935.88C280.54,-926.81 297.74,-915.55 312.71,-905.76"/>
<polygon fill="grey" stroke="grey" stroke-width="2" points="314.77,-908.59 321.22,-900.19 310.94,-902.74 314.77,-908.59"/>
</g>
<!-- 17&#45;&gt;14 -->
<g id="edge23" class="edge">
<title>17&#45;&gt;14</title>
<path fill="none" stroke="grey" stroke-width="2" d="M275.85,-939.58C279.11,-938.37 282.37,-937.16 285.5,-936 327.05,-920.67 339.53,-916.54 384.78,-900.25"/>
<polygon fill="grey" stroke="grey" stroke-width="2" points="386.06,-903.51 394.28,-896.83 383.69,-896.93 386.06,-903.51"/>
</g>
<!-- 20 -->
<g id="node21" class="node">
<title>20</title>
<path fill="none" stroke="#97d856" stroke-width="2" d="M250.5,-900C250.5,-900 208.5,-900 208.5,-900 202.5,-900 196.5,-894 196.5,-888 196.5,-888 196.5,-876 196.5,-876 196.5,-870 202.5,-864 208.5,-864 208.5,-864 250.5,-864 250.5,-864 256.5,-864 262.5,-870 262.5,-876 262.5,-876 262.5,-888 262.5,-888 262.5,-894 256.5,-900 250.5,-900"/>
<text text-anchor="middle" x="229.5" y="-879.5" font-family="sans" font-size="10.00">interleave</text>
</g>
<!-- 17&#45;&gt;20 -->
<g id="edge28" class="edge">
<title>17&#45;&gt;20</title>
<path fill="none" stroke="grey" stroke-width="2" d="M237.78,-935.7C236.57,-927.98 235.11,-918.71 233.76,-910.11"/>
<polygon fill="grey" stroke="grey" stroke-width="2" points="237.2,-909.44 232.19,-900.1 230.28,-910.53 237.2,-909.44"/>
</g>
<!-- 18 -->
<g id="node19" class="node">
<title>18</title>
<path fill="none" stroke="#5682d8" stroke-width="2" d="M389,-972C389,-972 306,-972 306,-972 300,-972 294,-966 294,-960 294,-960 294,-948 294,-948 294,-942 300,-936 306,-936 306,-936 389,-936 389,-936 395,-936 401,-942 401,-948 401,-948 401,-960 401,-960 401,-966 395,-972 389,-972"/>
<text text-anchor="middle" x="347.5" y="-951.5" font-family="sans" font-size="10.00">setup_mitoflex_db</text>
</g>
<!-- 18&#45;&gt;13 -->
<g id="edge21" class="edge">
<title>18&#45;&gt;13</title>
<path fill="none" stroke="grey" stroke-width="2" d="M347.5,-935.7C347.5,-927.98 347.5,-918.71 347.5,-910.11"/>
<polygon fill="grey" stroke="grey" stroke-width="2" points="351,-910.1 347.5,-900.1 344,-910.1 351,-910.1"/>
</g>
<!-- 19 -->
<g id="node20" class="node">
<title>19</title>
<path fill="none" stroke="#d89556" stroke-width="2" d="M482,-972C482,-972 431,-972 431,-972 425,-972 419,-966 419,-960 419,-960 419,-948 419,-948 419,-942 425,-936 431,-936 431,-936 482,-936 482,-936 488,-936 494,-942 494,-948 494,-948 494,-960 494,-960 494,-966 488,-972 482,-972"/>
<text text-anchor="middle" x="456.5" y="-951.5" font-family="sans" font-size="10.00">NOVOconfig</text>
</g>
<!-- 19&#45;&gt;14 -->
<g id="edge24" class="edge">
<title>19&#45;&gt;14</title>
<path fill="none" stroke="grey" stroke-width="2" d="M450.57,-935.7C447.89,-927.9 444.67,-918.51 441.7,-909.83"/>
<polygon fill="grey" stroke="grey" stroke-width="2" points="444.92,-908.43 438.36,-900.1 438.3,-910.7 444.92,-908.43"/>
</g>
<!-- 20&#45;&gt;15 -->
<g id="edge25" class="edge">
<title>20&#45;&gt;15</title>
<path fill="none" stroke="grey" stroke-width="2" d="M229.5,-863.7C229.5,-855.98 229.5,-846.71 229.5,-838.11"/>
<polygon fill="grey" stroke="grey" stroke-width="2" points="233,-838.1 229.5,-828.1 226,-838.1 233,-838.1"/>
</g>
<!-- 21 -->
<g id="node22" class="node">
<title>21</title>
<path fill="none" stroke="#d8c356" stroke-width="2" d="M268.5,-1044C268.5,-1044 212.5,-1044 212.5,-1044 206.5,-1044 200.5,-1038 200.5,-1032 200.5,-1032 200.5,-1020 200.5,-1020 200.5,-1014 206.5,-1008 212.5,-1008 212.5,-1008 268.5,-1008 268.5,-1008 274.5,-1008 280.5,-1014 280.5,-1020 280.5,-1020 280.5,-1032 280.5,-1032 280.5,-1038 274.5,-1044 268.5,-1044"/>
<text text-anchor="middle" x="240.5" y="-1023.5" font-family="sans" font-size="10.00">trimmomatic</text>
</g>
<!-- 21&#45;&gt;17 -->
<g id="edge27" class="edge">
<title>21&#45;&gt;17</title>
<path fill="none" stroke="grey" stroke-width="2" d="M240.5,-1007.7C240.5,-999.98 240.5,-990.71 240.5,-982.11"/>
<polygon fill="grey" stroke="grey" stroke-width="2" points="244,-982.1 240.5,-972.1 237,-982.1 244,-982.1"/>
</g>
<!-- 22 -->
<g id="node23" class="node">
<title>22</title>
<path fill="none" stroke="#afd856" stroke-width="2" d="M263,-1116C263,-1116 218,-1116 218,-1116 212,-1116 206,-1110 206,-1104 206,-1104 206,-1092 206,-1092 206,-1086 212,-1080 218,-1080 218,-1080 263,-1080 263,-1080 269,-1080 275,-1086 275,-1092 275,-1092 275,-1104 275,-1104 275,-1110 269,-1116 263,-1116"/>
<text text-anchor="middle" x="240.5" y="-1095.5" font-family="sans" font-size="10.00">fastqdump</text>
</g>
<!-- 22&#45;&gt;21 -->
<g id="edge29" class="edge">
<title>22&#45;&gt;21</title>
<path fill="none" stroke="grey" stroke-width="2" d="M240.5,-1079.7C240.5,-1071.98 240.5,-1062.71 240.5,-1054.11"/>
<polygon fill="grey" stroke="grey" stroke-width="2" points="244,-1054.1 240.5,-1044.1 237,-1054.1 244,-1054.1"/>
</g>
</g>
</svg>
