<?xml version="1.0" encoding="UTF-8" standalone="no"?>
<!DOCTYPE svg PUBLIC "-//W3C//DTD SVG 1.1//EN"
 "http://www.w3.org/Graphics/SVG/1.1/DTD/svg11.dtd">
<!-- Generated by graphviz version 2.42.3 (20191010.1750)
 -->
<!-- Title: snakemake_dag Pages: 1 -->
<svg width="538pt" height="980pt"
 viewBox="0.00 0.00 537.50 980.00" xmlns="http://www.w3.org/2000/svg" xmlns:xlink="http://www.w3.org/1999/xlink">
<g id="graph0" class="graph" transform="scale(1 1) rotate(0) translate(4 976)">
<title>snakemake_dag</title>
<polygon fill="white" stroke="transparent" points="-4,4 -4,-976 533.5,-976 533.5,4 -4,4"/>
<!-- 0 -->
<g id="node1" class="node">
<title>0</title>
<path fill="none" stroke="#56d892" stroke-width="2" d="M264,-36C264,-36 234,-36 234,-36 228,-36 222,-30 222,-24 222,-24 222,-12 222,-12 222,-6 228,0 234,0 234,0 264,0 264,0 270,0 276,-6 276,-12 276,-12 276,-24 276,-24 276,-30 270,-36 264,-36"/>
<text text-anchor="middle" x="249" y="-15.5" font-family="sans" font-size="10.00">all</text>
</g>
<!-- 1 -->
<g id="node2" class="node">
<title>1</title>
<path fill="none" stroke="#d88556" stroke-width="2" d="M96,-900C96,-900 40,-900 40,-900 34,-900 28,-894 28,-888 28,-888 28,-876 28,-876 28,-870 34,-864 40,-864 40,-864 96,-864 96,-864 102,-864 108,-870 108,-876 108,-876 108,-888 108,-888 108,-894 102,-900 96,-900"/>
<text text-anchor="middle" x="68" y="-879.5" font-family="sans" font-size="10.00">trimmomatic</text>
</g>
<!-- 1&#45;&gt;0 -->
<g id="edge4" class="edge">
<title>1&#45;&gt;0</title>
<path fill="none" stroke="grey" stroke-width="2" d="M53.58,-863.89C33.62,-838.42 0,-788.2 0,-739 0,-739 0,-739 0,-161 0,-64.67 142.35,-32.83 211.79,-23.03"/>
<polygon fill="grey" stroke="grey" stroke-width="2" points="212.43,-26.48 221.88,-21.69 211.5,-19.54 212.43,-26.48"/>
</g>
<!-- 13 -->
<g id="node14" class="node">
<title>13</title>
<path fill="none" stroke="#566bd8" stroke-width="2" d="M181,-828C181,-828 135,-828 135,-828 129,-828 123,-822 123,-816 123,-816 123,-804 123,-804 123,-798 129,-792 135,-792 135,-792 181,-792 181,-792 187,-792 193,-798 193,-804 193,-804 193,-816 193,-816 193,-822 187,-828 181,-828"/>
<text text-anchor="middle" x="158" y="-807.5" font-family="sans" font-size="10.00">subsample</text>
</g>
<!-- 1&#45;&gt;13 -->
<g id="edge25" class="edge">
<title>1&#45;&gt;13</title>
<path fill="none" stroke="grey" stroke-width="2" d="M90.25,-863.7C101.58,-854.88 115.53,-844.03 127.82,-834.47"/>
<polygon fill="grey" stroke="grey" stroke-width="2" points="130.26,-837.01 136.01,-828.1 125.97,-831.48 130.26,-837.01"/>
</g>
<!-- 2 -->
<g id="node3" class="node">
<title>2</title>
<path fill="none" stroke="#d86e56" stroke-width="2" d="M70,-684C70,-684 40,-684 40,-684 34,-684 28,-678 28,-672 28,-672 28,-660 28,-660 28,-654 34,-648 40,-648 40,-648 70,-648 70,-648 76,-648 82,-654 82,-660 82,-660 82,-672 82,-672 82,-678 76,-684 70,-684"/>
<text text-anchor="middle" x="55" y="-663.5" font-family="sans" font-size="10.00">norgal</text>
</g>
<!-- 2&#45;&gt;0 -->
<g id="edge3" class="edge">
<title>2&#45;&gt;0</title>
<path fill="none" stroke="grey" stroke-width="2" d="M55,-647.95C55,-621.29 55,-568.11 55,-523 55,-523 55,-523 55,-161 55,-116.68 66.74,-101.3 100,-72 131.7,-44.08 179.11,-30.57 211.9,-24.24"/>
<polygon fill="grey" stroke="grey" stroke-width="2" points="212.77,-27.64 222,-22.43 211.53,-20.75 212.77,-27.64"/>
</g>
<!-- 17 -->
<g id="node18" class="node">
<title>17</title>
<path fill="none" stroke="#8fd856" stroke-width="2" d="M351,-612C351,-612 321,-612 321,-612 315,-612 309,-606 309,-600 309,-600 309,-588 309,-588 309,-582 315,-576 321,-576 321,-576 351,-576 351,-576 357,-576 363,-582 363,-588 363,-588 363,-600 363,-600 363,-606 357,-612 351,-612"/>
<text text-anchor="middle" x="336" y="-591.5" font-family="sans" font-size="10.00">mitos</text>
</g>
<!-- 2&#45;&gt;17 -->
<g id="edge28" class="edge">
<title>2&#45;&gt;17</title>
<path fill="none" stroke="grey" stroke-width="2" d="M82.25,-651.34C85.17,-650.12 88.12,-648.98 91,-648 162.8,-623.64 250.34,-607.89 298.95,-600.31"/>
<polygon fill="grey" stroke="grey" stroke-width="2" points="299.64,-603.75 308.99,-598.78 298.58,-596.83 299.64,-603.75"/>
</g>
<!-- 3 -->
<g id="node4" class="node">
<title>3</title>
<path fill="none" stroke="#56c9d8" stroke-width="2" d="M171.5,-684C171.5,-684 112.5,-684 112.5,-684 106.5,-684 100.5,-678 100.5,-672 100.5,-672 100.5,-660 100.5,-660 100.5,-654 106.5,-648 112.5,-648 112.5,-648 171.5,-648 171.5,-648 177.5,-648 183.5,-654 183.5,-660 183.5,-660 183.5,-672 183.5,-672 183.5,-678 177.5,-684 171.5,-684"/>
<text text-anchor="middle" x="142" y="-663.5" font-family="sans" font-size="10.00">get_organelle</text>
</g>
<!-- 3&#45;&gt;0 -->
<g id="edge6" class="edge">
<title>3&#45;&gt;0</title>
<path fill="none" stroke="grey" stroke-width="2" d="M131.85,-647.73C117.49,-621.64 93,-570.2 93,-523 93,-523 93,-523 93,-161 93,-117.81 101.65,-102.73 132,-72 153.86,-49.87 186.63,-36.12 211.94,-28.19"/>
<polygon fill="grey" stroke="grey" stroke-width="2" points="212.98,-31.53 221.57,-25.33 210.99,-24.82 212.98,-31.53"/>
</g>
<!-- 3&#45;&gt;17 -->
<g id="edge30" class="edge">
<title>3&#45;&gt;17</title>
<path fill="none" stroke="grey" stroke-width="2" d="M183.62,-649.98C217.92,-637.61 266.13,-620.21 299.08,-608.32"/>
<polygon fill="grey" stroke="grey" stroke-width="2" points="300.56,-611.51 308.78,-604.82 298.18,-604.92 300.56,-611.51"/>
</g>
<!-- 4 -->
<g id="node5" class="node">
<title>4</title>
<path fill="none" stroke="#56d8b9" stroke-width="2" d="M517.5,-684C517.5,-684 484.5,-684 484.5,-684 478.5,-684 472.5,-678 472.5,-672 472.5,-672 472.5,-660 472.5,-660 472.5,-654 478.5,-648 484.5,-648 484.5,-648 517.5,-648 517.5,-648 523.5,-648 529.5,-654 529.5,-660 529.5,-660 529.5,-672 529.5,-672 529.5,-678 523.5,-684 517.5,-684"/>
<text text-anchor="middle" x="501" y="-663.5" font-family="sans" font-size="10.00">mitoflex</text>
</g>
<!-- 4&#45;&gt;0 -->
<g id="edge11" class="edge">
<title>4&#45;&gt;0</title>
<path fill="none" stroke="grey" stroke-width="2" d="M497.16,-647.61C491.6,-620.94 482,-568.27 482,-523 482,-523 482,-523 482,-161 482,-70.39 351.94,-35.91 286.16,-24.27"/>
<polygon fill="grey" stroke="grey" stroke-width="2" points="286.63,-20.8 276.18,-22.59 285.46,-27.7 286.63,-20.8"/>
</g>
<!-- 4&#45;&gt;17 -->
<g id="edge32" class="edge">
<title>4&#45;&gt;17</title>
<path fill="none" stroke="grey" stroke-width="2" d="M472.4,-652.11C469.23,-650.71 466.05,-649.32 463,-648 432.66,-634.89 398.03,-620.47 372.6,-609.99"/>
<polygon fill="grey" stroke="grey" stroke-width="2" points="373.92,-606.74 363.34,-606.17 371.25,-613.22 373.92,-606.74"/>
</g>
<!-- 5 -->
<g id="node6" class="node">
<title>5</title>
<path fill="none" stroke="#bed856" stroke-width="2" d="M266,-684C266,-684 214,-684 214,-684 208,-684 202,-678 202,-672 202,-672 202,-660 202,-660 202,-654 208,-648 214,-648 214,-648 266,-648 266,-648 272,-648 278,-654 278,-660 278,-660 278,-672 278,-672 278,-678 272,-684 266,-684"/>
<text text-anchor="middle" x="240" y="-663.5" font-family="sans" font-size="10.00">NOVOplasty</text>
</g>
<!-- 5&#45;&gt;0 -->
<g id="edge9" class="edge">
<title>5&#45;&gt;0</title>
<path fill="none" stroke="grey" stroke-width="2" d="M214.44,-647.89C182.23,-624.04 131,-577.54 131,-523 131,-523 131,-523 131,-161 131,-119.91 130.7,-104.37 156,-72 170.39,-53.59 193.08,-40.47 212.45,-31.9"/>
<polygon fill="grey" stroke="grey" stroke-width="2" points="214.05,-35.02 221.93,-27.94 211.35,-28.56 214.05,-35.02"/>
</g>
<!-- 5&#45;&gt;17 -->
<g id="edge31" class="edge">
<title>5&#45;&gt;17</title>
<path fill="none" stroke="grey" stroke-width="2" d="M263.73,-647.7C275.94,-638.8 290.99,-627.82 304.18,-618.2"/>
<polygon fill="grey" stroke="grey" stroke-width="2" points="306.52,-620.82 312.54,-612.1 302.4,-615.17 306.52,-620.82"/>
</g>
<!-- 6 -->
<g id="node7" class="node">
<title>6</title>
<path fill="none" stroke="#56d87b" stroke-width="2" d="M442,-684C442,-684 406,-684 406,-684 400,-684 394,-678 394,-672 394,-672 394,-660 394,-660 394,-654 400,-648 406,-648 406,-648 442,-648 442,-648 448,-648 454,-654 454,-660 454,-660 454,-672 454,-672 454,-678 448,-684 442,-684"/>
<text text-anchor="middle" x="424" y="-663.5" font-family="sans" font-size="10.00">MITObim</text>
</g>
<!-- 6&#45;&gt;0 -->
<g id="edge5" class="edge">
<title>6&#45;&gt;0</title>
<path fill="none" stroke="grey" stroke-width="2" d="M424.2,-647.95C424.49,-621.29 425,-568.12 425,-523 425,-523 425,-523 425,-161 425,-90 337.17,-48.45 285.6,-30.17"/>
<polygon fill="grey" stroke="grey" stroke-width="2" points="286.71,-26.85 276.11,-26.93 284.44,-33.47 286.71,-26.85"/>
</g>
<!-- 6&#45;&gt;17 -->
<g id="edge29" class="edge">
<title>6&#45;&gt;17</title>
<path fill="none" stroke="grey" stroke-width="2" d="M402.25,-647.7C391.16,-638.88 377.53,-628.03 365.51,-618.47"/>
<polygon fill="grey" stroke="grey" stroke-width="2" points="367.51,-615.59 357.5,-612.1 363.15,-621.07 367.51,-615.59"/>
</g>
<!-- 7 -->
<g id="node8" class="node">
<title>7</title>
<path fill="none" stroke="#569ad8" stroke-width="2" d="M376,-540C376,-540 302,-540 302,-540 296,-540 290,-534 290,-528 290,-528 290,-516 290,-516 290,-510 296,-504 302,-504 302,-504 376,-504 376,-504 382,-504 388,-510 388,-516 388,-516 388,-528 388,-528 388,-534 382,-540 376,-540"/>
<text text-anchor="middle" x="339" y="-519.5" font-family="sans" font-size="10.00">annotation_stats</text>
</g>
<!-- 7&#45;&gt;0 -->
<g id="edge8" class="edge">
<title>7&#45;&gt;0</title>
<path fill="none" stroke="grey" stroke-width="2" d="M348.95,-503.71C363.01,-477.58 387,-426.1 387,-379 387,-379 387,-379 387,-161 387,-102.51 326.05,-59.05 285.16,-36.47"/>
<polygon fill="grey" stroke="grey" stroke-width="2" points="286.73,-33.34 276.26,-31.71 283.43,-39.51 286.73,-33.34"/>
</g>
<!-- 18 -->
<g id="node19" class="node">
<title>18</title>
<path fill="none" stroke="#5682d8" stroke-width="2" d="M345,-396C345,-396 249,-396 249,-396 243,-396 237,-390 237,-384 237,-384 237,-372 237,-372 237,-366 243,-360 249,-360 249,-360 345,-360 345,-360 351,-360 357,-366 357,-372 357,-372 357,-384 357,-384 357,-390 351,-396 345,-396"/>
<text text-anchor="middle" x="297" y="-375.5" font-family="sans" font-size="10.00">reverse_complement</text>
</g>
<!-- 7&#45;&gt;18 -->
<g id="edge33" class="edge">
<title>7&#45;&gt;18</title>
<path fill="none" stroke="grey" stroke-width="2" d="M337.67,-503.9C335.9,-485.7 332.01,-456.25 324,-432 320.99,-422.88 316.6,-413.39 312.24,-405.01"/>
<polygon fill="grey" stroke="grey" stroke-width="2" points="315.24,-403.2 307.39,-396.09 309.09,-406.54 315.24,-403.2"/>
</g>
<!-- 21 -->
<g id="node22" class="node">
<title>21</title>
<path fill="none" stroke="#56d8a2" stroke-width="2" d="M303,-468C303,-468 273,-468 273,-468 267,-468 261,-462 261,-456 261,-456 261,-444 261,-444 261,-438 267,-432 273,-432 273,-432 303,-432 303,-432 309,-432 315,-438 315,-444 315,-444 315,-456 315,-456 315,-462 309,-468 303,-468"/>
<text text-anchor="middle" x="288" y="-447.5" font-family="sans" font-size="10.00">roll</text>
</g>
<!-- 7&#45;&gt;21 -->
<g id="edge36" class="edge">
<title>7&#45;&gt;21</title>
<path fill="none" stroke="grey" stroke-width="2" d="M326.39,-503.7C320.4,-495.47 313.12,-485.48 306.52,-476.42"/>
<polygon fill="grey" stroke="grey" stroke-width="2" points="309.18,-474.13 300.46,-468.1 303.52,-478.25 309.18,-474.13"/>
</g>
<!-- 8 -->
<g id="node9" class="node">
<title>8</title>
<path fill="none" stroke="#a7d856" stroke-width="2" d="M292,-324C292,-324 232,-324 232,-324 226,-324 220,-318 220,-312 220,-312 220,-300 220,-300 220,-294 226,-288 232,-288 232,-288 292,-288 292,-288 298,-288 304,-294 304,-300 304,-300 304,-312 304,-312 304,-318 298,-324 292,-324"/>
<text text-anchor="middle" x="262" y="-303.5" font-family="sans" font-size="10.00">second_mitos</text>
</g>
<!-- 8&#45;&gt;0 -->
<g id="edge10" class="edge">
<title>8&#45;&gt;0</title>
<path fill="none" stroke="grey" stroke-width="2" d="M262.79,-287.99C264.35,-249.43 267.05,-152.51 259,-72 258.15,-63.48 256.63,-54.29 255.03,-45.99"/>
<polygon fill="grey" stroke="grey" stroke-width="2" points="258.43,-45.17 253,-36.08 251.58,-46.57 258.43,-45.17"/>
</g>
<!-- 10 -->
<g id="node11" class="node">
<title>10</title>
<path fill="none" stroke="#56b1d8" stroke-width="2" d="M237,-252C237,-252 171,-252 171,-252 165,-252 159,-246 159,-240 159,-240 159,-228 159,-228 159,-222 165,-216 171,-216 171,-216 237,-216 237,-216 243,-216 249,-222 249,-228 249,-228 249,-240 249,-240 249,-246 243,-252 237,-252"/>
<text text-anchor="middle" x="204" y="-231.5" font-family="sans" font-size="10.00">gene_positions</text>
</g>
<!-- 8&#45;&gt;10 -->
<g id="edge23" class="edge">
<title>8&#45;&gt;10</title>
<path fill="none" stroke="grey" stroke-width="2" d="M247.66,-287.7C240.71,-279.3 232.23,-269.07 224.6,-259.86"/>
<polygon fill="grey" stroke="grey" stroke-width="2" points="227.25,-257.57 218.17,-252.1 221.86,-262.04 227.25,-257.57"/>
</g>
<!-- 9 -->
<g id="node10" class="node">
<title>9</title>
<path fill="none" stroke="#56d8d0" stroke-width="2" d="M347,-252C347,-252 317,-252 317,-252 311,-252 305,-246 305,-240 305,-240 305,-228 305,-228 305,-222 311,-216 317,-216 317,-216 347,-216 347,-216 353,-216 359,-222 359,-228 359,-228 359,-240 359,-240 359,-246 353,-252 347,-252"/>
<text text-anchor="middle" x="332" y="-231.5" font-family="sans" font-size="10.00">align</text>
</g>
<!-- 9&#45;&gt;0 -->
<g id="edge1" class="edge">
<title>9&#45;&gt;0</title>
<path fill="none" stroke="grey" stroke-width="2" d="M331.89,-215.96C331.03,-185.38 326.12,-119.9 301,-72 295.4,-61.32 286.94,-51.36 278.47,-43.03"/>
<polygon fill="grey" stroke="grey" stroke-width="2" points="280.79,-40.41 271.09,-36.15 276.01,-45.53 280.79,-40.41"/>
</g>
<!-- 10&#45;&gt;0 -->
<g id="edge7" class="edge">
<title>10&#45;&gt;0</title>
<path fill="none" stroke="grey" stroke-width="2" d="M214.22,-215.94C219.79,-205.83 226.29,-192.58 230,-180 243.45,-134.4 247.42,-78.89 248.57,-46.39"/>
<polygon fill="grey" stroke="grey" stroke-width="2" points="252.07,-46.4 248.86,-36.3 245.07,-46.2 252.07,-46.4"/>
</g>
<!-- 19 -->
<g id="node20" class="node">
<title>19</title>
<path fill="none" stroke="#d89c56" stroke-width="2" d="M209,-180C209,-180 171,-180 171,-180 165,-180 159,-174 159,-168 159,-168 159,-156 159,-156 159,-150 165,-144 171,-144 171,-144 209,-144 209,-144 215,-144 221,-150 221,-156 221,-156 221,-168 221,-168 221,-174 215,-180 209,-180"/>
<text text-anchor="middle" x="190" y="-159.5" font-family="sans" font-size="10.00">gbk_prep</text>
</g>
<!-- 10&#45;&gt;19 -->
<g id="edge35" class="edge">
<title>10&#45;&gt;19</title>
<path fill="none" stroke="grey" stroke-width="2" d="M200.54,-215.7C199,-207.98 197.14,-198.71 195.42,-190.11"/>
<polygon fill="grey" stroke="grey" stroke-width="2" points="198.81,-189.22 193.42,-180.1 191.95,-190.6 198.81,-189.22"/>
</g>
<!-- 11 -->
<g id="node12" class="node">
<title>11</title>
<path fill="none" stroke="#d85656" stroke-width="2" d="M207,-108C207,-108 177,-108 177,-108 171,-108 165,-102 165,-96 165,-96 165,-84 165,-84 165,-78 171,-72 177,-72 177,-72 207,-72 207,-72 213,-72 219,-78 219,-84 219,-84 219,-96 219,-96 219,-102 213,-108 207,-108"/>
<text text-anchor="middle" x="192" y="-87.5" font-family="sans" font-size="10.00">CGview</text>
</g>
<!-- 11&#45;&gt;0 -->
<g id="edge2" class="edge">
<title>11&#45;&gt;0</title>
<path fill="none" stroke="grey" stroke-width="2" d="M206.09,-71.7C212.92,-63.3 221.26,-53.07 228.76,-43.86"/>
<polygon fill="grey" stroke="grey" stroke-width="2" points="231.47,-46.07 235.07,-36.1 226.04,-41.65 231.47,-46.07"/>
</g>
<!-- 12 -->
<g id="node13" class="node">
<title>12</title>
<path fill="none" stroke="#61d856" stroke-width="2" d="M90.5,-972C90.5,-972 45.5,-972 45.5,-972 39.5,-972 33.5,-966 33.5,-960 33.5,-960 33.5,-948 33.5,-948 33.5,-942 39.5,-936 45.5,-936 45.5,-936 90.5,-936 90.5,-936 96.5,-936 102.5,-942 102.5,-948 102.5,-948 102.5,-960 102.5,-960 102.5,-966 96.5,-972 90.5,-972"/>
<text text-anchor="middle" x="68" y="-951.5" font-family="sans" font-size="10.00">fastqdump</text>
</g>
<!-- 12&#45;&gt;1 -->
<g id="edge12" class="edge">
<title>12&#45;&gt;1</title>
<path fill="none" stroke="grey" stroke-width="2" d="M68,-935.7C68,-927.98 68,-918.71 68,-910.11"/>
<polygon fill="grey" stroke="grey" stroke-width="2" points="71.5,-910.1 68,-900.1 64.5,-910.1 71.5,-910.1"/>
</g>
<!-- 13&#45;&gt;2 -->
<g id="edge13" class="edge">
<title>13&#45;&gt;2</title>
<path fill="none" stroke="grey" stroke-width="2" d="M145.58,-791.87C127.63,-767.14 94.34,-721.24 73.51,-692.51"/>
<polygon fill="grey" stroke="grey" stroke-width="2" points="76.17,-690.23 67.47,-684.19 70.51,-694.34 76.17,-690.23"/>
</g>
<!-- 13&#45;&gt;3 -->
<g id="edge14" class="edge">
<title>13&#45;&gt;3</title>
<path fill="none" stroke="grey" stroke-width="2" d="M156.07,-791.87C153.34,-767.67 148.33,-723.21 145.09,-694.39"/>
<polygon fill="grey" stroke="grey" stroke-width="2" points="148.53,-693.73 143.94,-684.19 141.58,-694.52 148.53,-693.73"/>
</g>
<!-- 13&#45;&gt;4 -->
<g id="edge15" class="edge">
<title>13&#45;&gt;4</title>
<path fill="none" stroke="grey" stroke-width="2" d="M193.1,-809.03C272.17,-808.28 460.45,-801.63 500,-756 514.5,-739.27 513.08,-713.4 509.03,-693.85"/>
<polygon fill="grey" stroke="grey" stroke-width="2" points="512.4,-692.92 506.66,-684.01 505.6,-694.55 512.4,-692.92"/>
</g>
<!-- 13&#45;&gt;5 -->
<g id="edge18" class="edge">
<title>13&#45;&gt;5</title>
<path fill="none" stroke="grey" stroke-width="2" d="M163.91,-791.93C170.65,-773.51 182.6,-743.63 197,-720 202.89,-710.34 210.37,-700.51 217.43,-691.99"/>
<polygon fill="grey" stroke="grey" stroke-width="2" points="220.19,-694.14 224.01,-684.26 214.86,-689.6 220.19,-694.14"/>
</g>
<!-- 16 -->
<g id="node17" class="node">
<title>16</title>
<path fill="none" stroke="#d8c356" stroke-width="2" d="M353,-756C353,-756 311,-756 311,-756 305,-756 299,-750 299,-744 299,-744 299,-732 299,-732 299,-726 305,-720 311,-720 311,-720 353,-720 353,-720 359,-720 365,-726 365,-732 365,-732 365,-744 365,-744 365,-750 359,-756 353,-756"/>
<text text-anchor="middle" x="332" y="-735.5" font-family="sans" font-size="10.00">interleave</text>
</g>
<!-- 13&#45;&gt;16 -->
<g id="edge26" class="edge">
<title>13&#45;&gt;16</title>
<path fill="none" stroke="grey" stroke-width="2" d="M193.21,-794.83C220.96,-783.67 259.75,-768.06 289.28,-756.19"/>
<polygon fill="grey" stroke="grey" stroke-width="2" points="290.93,-759.29 298.9,-752.31 288.32,-752.8 290.93,-759.29"/>
</g>
<!-- 14 -->
<g id="node15" class="node">
<title>14</title>
<path fill="none" stroke="#56d863" stroke-width="2" d="M478.5,-756C478.5,-756 395.5,-756 395.5,-756 389.5,-756 383.5,-750 383.5,-744 383.5,-744 383.5,-732 383.5,-732 383.5,-726 389.5,-720 395.5,-720 395.5,-720 478.5,-720 478.5,-720 484.5,-720 490.5,-726 490.5,-732 490.5,-732 490.5,-744 490.5,-744 490.5,-750 484.5,-756 478.5,-756"/>
<text text-anchor="middle" x="437" y="-735.5" font-family="sans" font-size="10.00">setup_mitoflex_db</text>
</g>
<!-- 14&#45;&gt;4 -->
<g id="edge16" class="edge">
<title>14&#45;&gt;4</title>
<path fill="none" stroke="grey" stroke-width="2" d="M452.82,-719.7C460.57,-711.22 470.04,-700.86 478.52,-691.58"/>
<polygon fill="grey" stroke="grey" stroke-width="2" points="481.2,-693.85 485.36,-684.1 476.03,-689.12 481.2,-693.85"/>
</g>
<!-- 15 -->
<g id="node16" class="node">
<title>15</title>
<path fill="none" stroke="#d6d856" stroke-width="2" d="M268.5,-756C268.5,-756 217.5,-756 217.5,-756 211.5,-756 205.5,-750 205.5,-744 205.5,-744 205.5,-732 205.5,-732 205.5,-726 211.5,-720 217.5,-720 217.5,-720 268.5,-720 268.5,-720 274.5,-720 280.5,-726 280.5,-732 280.5,-732 280.5,-744 280.5,-744 280.5,-750 274.5,-756 268.5,-756"/>
<text text-anchor="middle" x="243" y="-735.5" font-family="sans" font-size="10.00">NOVOconfig</text>
</g>
<!-- 15&#45;&gt;5 -->
<g id="edge17" class="edge">
<title>15&#45;&gt;5</title>
<path fill="none" stroke="grey" stroke-width="2" d="M242.26,-719.7C241.93,-711.98 241.53,-702.71 241.16,-694.11"/>
<polygon fill="grey" stroke="grey" stroke-width="2" points="244.66,-693.95 240.73,-684.1 237.66,-694.25 244.66,-693.95"/>
</g>
<!-- 16&#45;&gt;6 -->
<g id="edge19" class="edge">
<title>16&#45;&gt;6</title>
<path fill="none" stroke="grey" stroke-width="2" d="M354.74,-719.7C366.44,-710.8 380.86,-699.82 393.51,-690.2"/>
<polygon fill="grey" stroke="grey" stroke-width="2" points="395.68,-692.94 401.52,-684.1 391.44,-687.37 395.68,-692.94"/>
</g>
<!-- 17&#45;&gt;7 -->
<g id="edge20" class="edge">
<title>17&#45;&gt;7</title>
<path fill="none" stroke="grey" stroke-width="2" d="M336.74,-575.7C337.07,-567.98 337.47,-558.71 337.84,-550.11"/>
<polygon fill="grey" stroke="grey" stroke-width="2" points="341.34,-550.25 338.27,-540.1 334.34,-549.95 341.34,-550.25"/>
</g>
<!-- 18&#45;&gt;8 -->
<g id="edge21" class="edge">
<title>18&#45;&gt;8</title>
<path fill="none" stroke="grey" stroke-width="2" d="M288.35,-359.7C284.36,-351.73 279.55,-342.1 275.13,-333.26"/>
<polygon fill="grey" stroke="grey" stroke-width="2" points="278.15,-331.48 270.55,-324.1 271.89,-334.61 278.15,-331.48"/>
</g>
<!-- 18&#45;&gt;9 -->
<g id="edge22" class="edge">
<title>18&#45;&gt;9</title>
<path fill="none" stroke="grey" stroke-width="2" d="M302.55,-359.92C305.81,-349.58 309.89,-336.1 313,-324 318.28,-303.47 323.24,-280.02 326.77,-262.34"/>
<polygon fill="grey" stroke="grey" stroke-width="2" points="330.28,-262.65 328.78,-252.16 323.41,-261.3 330.28,-262.65"/>
</g>
<!-- 19&#45;&gt;11 -->
<g id="edge24" class="edge">
<title>19&#45;&gt;11</title>
<path fill="none" stroke="grey" stroke-width="2" d="M190.49,-143.7C190.71,-135.98 190.98,-126.71 191.23,-118.11"/>
<polygon fill="grey" stroke="grey" stroke-width="2" points="194.72,-118.2 191.51,-108.1 187.73,-118 194.72,-118.2"/>
</g>
<!-- 20 -->
<g id="node21" class="node">
<title>20</title>
<path fill="none" stroke="#d8b456" stroke-width="2" d="M364,-684C364,-684 308,-684 308,-684 302,-684 296,-678 296,-672 296,-672 296,-660 296,-660 296,-654 302,-648 308,-648 308,-648 364,-648 364,-648 370,-648 376,-654 376,-660 376,-660 376,-672 376,-672 376,-678 370,-684 364,-684"/>
<text text-anchor="middle" x="336" y="-663.5" font-family="sans" font-size="10.00">mitos_ref_db</text>
</g>
<!-- 20&#45;&gt;17 -->
<g id="edge27" class="edge">
<title>20&#45;&gt;17</title>
<path fill="none" stroke="grey" stroke-width="2" d="M336,-647.7C336,-639.98 336,-630.71 336,-622.11"/>
<polygon fill="grey" stroke="grey" stroke-width="2" points="339.5,-622.1 336,-612.1 332.5,-622.1 339.5,-622.1"/>
</g>
<!-- 21&#45;&gt;18 -->
<g id="edge34" class="edge">
<title>21&#45;&gt;18</title>
<path fill="none" stroke="grey" stroke-width="2" d="M290.22,-431.7C291.22,-423.98 292.41,-414.71 293.51,-406.11"/>
<polygon fill="grey" stroke="grey" stroke-width="2" points="297,-406.47 294.8,-396.1 290.05,-405.58 297,-406.47"/>
</g>
</g>
</svg>
